<svg xmlns="http://www.w3.org/2000/svg" xmlns:xlink="http://www.w3.org/1999/xlink" width="133.85" height="90.85" xmlns:v="https://vecta.io/nano"><style><![CDATA[.B{fill-opacity:.75}.C{fill-rule:evenodd}.D{stroke-opacity:.749}.E{fill-opacity:.749}]]></style><defs><pattern id="A" xlink:href="#D" patternTransform="matrix(.15145 .076804 -.076804 .15145 165.91 798.64)"/><pattern id="B" width="82.324" patternUnits="userSpaceOnUse" patternTransform="translate(-121.27 501.47)" height="68.869"><g class="C"><g fill="#000"><path d="m-77.896 522.51a2.9601 7.0107 0 1 0 -5.92 0 2.9601 7.0107 0 1 0 5.92 0z" transform="matrix(.97775 .20975 -.20975 .97775 235.61 -479.43)" class="B"/><path d="m-77.896 522.51a2.9601 7.0107 0 1 0 -5.92 0 2.9601 7.0107 0 1 0 5.92 0z" transform="matrix(.19595 .98062 -.98062 .19595 581.73 -2.68)" class="B"/><path d="m-77.896 522.51a2.9601 7.0107 0 1 0 -5.92 0 2.9601 7.0107 0 1 0 5.92 0z" transform="matrix(-.511 .85958 -.85958 -.511 460.39 363.78)" class="B"/><path d="m-77.896 522.51a2.9601 7.0107 0 1 0 -5.92 0 2.9601 7.0107 0 1 0 5.92 0z" transform="matrix(-.99991 -.013244 .013244 -.99991 -42.68 552.73)" class="B"/><path d="m-77.896 522.51a2.9601 7.0107 0 1 0 -5.92 0 2.9601 7.0107 0 1 0 5.92 0z" transform="matrix(-.49178 -.87072 .87072 -.49178 -457.12 213.21)" class="B"/><path d="m-77.896 522.51a2.9601 7.0107 0 1 0 -5.92 0 2.9601 7.0107 0 1 0 5.92 0z" transform="matrix(.56298 -.82648 .82648 .56298 -348.09 -343.68)" class="B"/></g><path d="m-73.846 524.07a2.3369 2.3369 0 1 0 -4.673 0 2.3369 2.3369 0 1 0 4.673 0z" fill="#b3b3b3" transform="translate(121.27 -501.47)" class="B"/></g><path d="m-74.527 526.27c5.144 12.71 10.398 18.35 28.159 21.15" stroke="#4d4d4d" stroke-width="1pt" fill="none" transform="translate(121.27 -501.47)" class="D"/><path d="M-61.966 542.75c-5.81-3.86 2.375-12.66 2.811-19.2 3.329 17.78.63 21.48-2.811 19.2zm5.738 2.99c-4.78-5.08-12.082 4.46-18.452 5.99 18.085.3 21.283-2.99 18.452-5.99z" transform="translate(121.27 -501.47)" class="E C" fill="#272727"/><g transform="matrix(-.55449 0 0 .55449 -13.91 -245.38)"><g class="C"><g fill="#000"><path d="m-77.896 522.51a2.9601 7.0107 0 1 0 -5.92 0 2.9601 7.0107 0 1 0 5.92 0z" transform="matrix(.97775 .20975 -.20975 .97775 114.34 22.04)" class="B"/><path d="m-77.896 522.51a2.9601 7.0107 0 1 0 -5.92 0 2.9601 7.0107 0 1 0 5.92 0z" transform="matrix(.19595 .98062 -.98062 .19595 460.46 498.79)" class="B"/><path d="m-77.896 522.51a2.9601 7.0107 0 1 0 -5.92 0 2.9601 7.0107 0 1 0 5.92 0z" transform="matrix(-.511 .85958 -.85958 -.511 339.12 865.25)" class="B"/><path d="m-77.896 522.51a2.9601 7.0107 0 1 0 -5.92 0 2.9601 7.0107 0 1 0 5.92 0z" transform="matrix(-.99991 -.013244 .013244 -.99991 -163.95 1054.2)" class="B"/><path d="m-77.896 522.51a2.9601 7.0107 0 1 0 -5.92 0 2.9601 7.0107 0 1 0 5.92 0z" transform="matrix(-.49178 -.87072 .87072 -.49178 -578.39 714.68)" class="B"/><path d="m-77.896 522.51a2.9601 7.0107 0 1 0 -5.92 0 2.9601 7.0107 0 1 0 5.92 0z" transform="matrix(.56298 -.82648 .82648 .56298 -469.36 157.79)" class="B"/></g><path d="M-73.846 524.07a2.337 2.337 0 1 0-4.673 0 2.337 2.337 0 1 0 4.673 0z" fill="#b3b3b3" class="B"/></g><path d="m-74.527 526.27c5.144 12.71 10.398 18.35 28.159 21.15" stroke="#4d4d4d" stroke-width="1.804pt" fill="none" class="D"/><path d="M-61.966 542.75c-5.81-3.86 2.375-12.66 2.811-19.2 3.329 17.78.63 21.48-2.811 19.2zm5.738 2.99c-4.78-5.08-12.082 4.46-18.452 5.99 18.085.3 21.283-2.99 18.452-5.99z" class="E C" fill="#272727"/></g></pattern><pattern id="C" xlink:href="#B" patternTransform="matrix(.34576 .17534 -.17534 .34576 -121.27 501.47)"/><pattern id="D" xlink:href="#C" patternTransform="matrix(.15145 .076804 -.076804 .15145 -121.27 501.47)"/><pattern id="E" xlink:href="#D" patternTransform="matrix(.15145 .076804 -.076804 .15145 165.91 798.64)"/><path id="F" d="M306.91 324.19c-5.47 4.31-9.12 8.4-12.23 13.14-1.28 1.96-6.14 9.07-7.15 16.39-1.71 12.45 2.91 22.21 12.16 26.84 16.55 8.29 42.46-5.41 46.78-18.37-12.46-19.63-32.71-26.47-39.56-38z"/><path id="G" d="M408.5 332.28c-4.36 9.66-40.52 16.83-47.06 32.1 4.53 16.35 28.94 28.58 43.15 22.06 18.53-8.51 16.94-24.58 15.69-35.25-.77-6.56-5.4-12.96-11.78-18.91z"/></defs><g transform="translate(-287.176 -297.16)"><g fill="#929292" class="C"><path d="M338.64 372.88c8.15-2.2 23.79-1.1 27.76 1.55-3.97-4.63-4.85-8.82-5.29-9.92-3.97 1.32-11.9-.22-14.54-1.98-1.32 3.96-5.29 8.15-7.93 10.35z"/><use xlink:href="#F"/></g><path d="M304.72 328.28c-2.37.15-7.1 5.69-11.34 11.69-.01.01 0 .02 0 .03-1.25 3.09-2.78 5.35-4.04 7.91-.19.41-.41.8-.59 1.25-.53 1.3-.97 2.75-1.22 4.56v.03c-.21 1.56-.33 3.05-.34 4.5a28.51 28.51 0 0 0 .25 4.19c.72 5.35 2.96 9.85 6.34 13.44 1.69 1.79 3.67 3.34 5.91 4.68 1.28.65 2.65 1.11 4.03 1.5v-.12c2.59.47 5.22.84 7.72.97.86.04 1.67.02 2.5 0 2-.17 4.01-.49 6-.97 1-.29 2-.59 3-.94l.4-.12c.09-.04.17-.07.25-.1 9.47-3.48 18.43-10.01 22.25-19.44-1.41-2.14-2.89-4.17-4.46-6.03-.64 7.7-5.31 16.81-23.47 21-24.48 5.65-27.79-16-27.79-22.59s17.34-25.61 14.6-25.44z" fill="#646464" class="C"/><use xlink:href="#F" fill="url(#E)"/><g class="C"><use xlink:href="#G" fill="#929292"/><path d="M408.06 332.94c-.7 1.15-1.87 2.27-3.34 3.37l.69.78c7.29 7.09 9.57 12.77 9.97 17.16.39 4.39 1.59 17.56-8.79 22.75s-19.57 6.8-30.75-1.19c-5.29-3.78-10.15-10.27-13-13.93-.36.54-.65 1.12-.93 1.68.58 1.51.69 2.07 1.97 5.06 1.29 3.06 3.08 5.62 5.15 7.85 2.48 2.46 5.36 4.59 8.47 6.37 5.57 2.84 11.95 4.21 18.06 4.41l-.34.78c3.34.06 6.56-.32 9.34-1.59.33-.15.54-.32.85-.47 1.61-.79 3.04-1.66 4.34-2.56.6-.42 1.18-.84 1.72-1.29.42-.33.74-.71 1.12-1.06 9.52-8.77 7.87-21.17 7.66-30-.28-2.23-1.13-4.44-2.22-6.62l-.06.06c-2.09-3.73-4.22-5.15-9.38-11-.2-.23-.33-.35-.53-.56z" fill="#646464"/></g><use xlink:href="#G" fill="url(#A)"/><g fill="none" stroke="#000"><path d="M345.86 362.2c6.54 3.12 10.9 3.43 15.89 2.18" stroke-width="1.75"/><path d="M307.35 324.85c11.02-8.81 23.8-22.91 26-26.44m74.47 34.6c-7.93-9.04-10.14-26.44-11.24-28.87" stroke-width="2.5"/></g><path d="M408.34 331.44l-.31.62c-.99 2.2-3.95 4.47-8.03 6.72s-9.23 4.54-14.44 7c-10.41 4.92-21.2 10.49-24.59 18.41l-.06.15.06.16c2.32 8.37 9.64 15.6 18.19 19.94 8.54 4.33 18.19 4.79 25.51 2.34-8.22 1.44-16.7.99-25.05-3.25-8.28-4.2-15.38-11.18-17.65-19.09 3.22-7.29 13.7-12.88 24.03-17.75 5.19-2.45 10.33-4.75 14.47-7.03 3.82-2.11 6.75-4.19 8.12-6.57 6.1 5.78 11.04 11.8 11.77 18.02.43-6.78-5.09-13.22-11.52-19.2zm-101.31-8l-.44.34c-3.83 4.61-10.54 8.45-12.1 13.66 3.15-4.87 7.17-8.34 12.35-12.5 3.6 5.66 10.2 10.19 17.44 15.62 7.41 5.55 15.43 12.08 21.6 21.69-2.19 6.18-9.53 12.7-18.41 16.63-8.99 3.96-19.63 5.75-27.72 1.7 5.92 4.53 18.95 3.28 28.13-.77 9.17-4.05 16.82-10.75 19.06-17.47.03-.07.06-.14.09-.22l-.12-.21c-6.29-9.9-14.55-16.55-22.03-22.16-7.49-5.61-14.2-10.2-17.54-15.81a8.38 8.38 0 0 0-.31-.5z"/></g></svg>