<?xml version="1.0" encoding="UTF-8" standalone="no"?>
<svg
   xmlns:dc="http://purl.org/dc/elements/1.1/"
   xmlns:cc="http://creativecommons.org/ns#"
   xmlns:rdf="http://www.w3.org/1999/02/22-rdf-syntax-ns#"
   xmlns:svg="http://www.w3.org/2000/svg"
   xmlns="http://www.w3.org/2000/svg"
   xmlns:xlink="http://www.w3.org/1999/xlink"
   xmlns:sodipodi="http://sodipodi.sourceforge.net/DTD/sodipodi-0.dtd"
   xmlns:inkscape="http://www.inkscape.org/namespaces/inkscape"
   id="svg2441"
   sodipodi:docname="freedo-Bikini (edited).svg"
   viewBox="0 0 133.85 90.85001"
   sodipodi:version="0.32"
   version="1.0"
   inkscape:output_extension="org.inkscape.output.svg.inkscape"
   inkscape:version="1.0.2-2 (e86c870879, 2021-01-15)"
   width="133.85001"
   height="90.850014">
  <defs
     id="defs2443">
    <pattern
       id="pattern3625"
       xlink:href="#pattern4779"
       patternTransform="matrix(.15145 .076804 -.076804 .15145 165.91 798.64)"
       inkscape:collect="always" />
    <pattern
       id="pattern2995"
       xlink:href="#pattern4779"
       patternTransform="matrix(.15145 .076804 -.076804 .15145 165.91 798.64)"
       inkscape:collect="always" />
    <pattern
       id="pattern4752"
       width="82.323624"
       patternUnits="userSpaceOnUse"
       patternTransform="translate(-121.27 501.47)"
       height="68.868538">
      <g
         id="g4728"
         transform="translate(121.27 -501.47)">
        <g
           id="g4084">
          <path
             id="path3454"
             sodipodi:rx="2.9600558"
             sodipodi:ry="7.0106583"
             style="fill-rule:evenodd;fill:#000000;fill-opacity:.75"
             sodipodi:type="arc"
             d="m-77.896 522.51a2.9601 7.0107 0 1 0 -5.92 0 2.9601 7.0107 0 1 0 5.92 0z"
             transform="matrix(.97775 .20975 -.20975 .97775 114.34 22.04)"
             sodipodi:cy="522.51221"
             sodipodi:cx="-80.856262" />
          <path
             id="path3455"
             sodipodi:rx="2.9600558"
             sodipodi:ry="7.0106583"
             style="fill-rule:evenodd;fill:#000000;fill-opacity:.75"
             sodipodi:type="arc"
             d="m-77.896 522.51a2.9601 7.0107 0 1 0 -5.92 0 2.9601 7.0107 0 1 0 5.92 0z"
             transform="matrix(.19595 .98062 -.98062 .19595 460.46 498.79)"
             sodipodi:cy="522.51221"
             sodipodi:cx="-80.856262" />
          <path
             id="path3456"
             sodipodi:rx="2.9600558"
             sodipodi:ry="7.0106583"
             style="fill-rule:evenodd;fill:#000000;fill-opacity:.75"
             sodipodi:type="arc"
             d="m-77.896 522.51a2.9601 7.0107 0 1 0 -5.92 0 2.9601 7.0107 0 1 0 5.92 0z"
             transform="matrix(-0.511 .85958 -.85958 -0.511 339.12 865.25)"
             sodipodi:cy="522.51221"
             sodipodi:cx="-80.856262" />
          <path
             id="path3457"
             sodipodi:rx="2.9600558"
             sodipodi:ry="7.0106583"
             style="fill-rule:evenodd;fill:#000000;fill-opacity:.75"
             sodipodi:type="arc"
             d="m-77.896 522.51a2.9601 7.0107 0 1 0 -5.92 0 2.9601 7.0107 0 1 0 5.92 0z"
             transform="matrix(-.99991 -.013244 .013244 -.99991 -163.95 1054.2)"
             sodipodi:cy="522.51221"
             sodipodi:cx="-80.856262" />
          <path
             id="path3458"
             sodipodi:rx="2.9600558"
             sodipodi:ry="7.0106583"
             style="fill-rule:evenodd;fill:#000000;fill-opacity:.75"
             sodipodi:type="arc"
             d="m-77.896 522.51a2.9601 7.0107 0 1 0 -5.92 0 2.9601 7.0107 0 1 0 5.92 0z"
             transform="matrix(-.49178 -.87072 .87072 -.49178 -578.39 714.68)"
             sodipodi:cy="522.51221"
             sodipodi:cx="-80.856262" />
          <path
             id="path3459"
             sodipodi:rx="2.9600558"
             sodipodi:ry="7.0106583"
             style="fill-rule:evenodd;fill:#000000;fill-opacity:.75"
             sodipodi:type="arc"
             d="m-77.896 522.51a2.9601 7.0107 0 1 0 -5.92 0 2.9601 7.0107 0 1 0 5.92 0z"
             transform="matrix(.56298 -.82648 .82648 .56298 -469.36 157.79)"
             sodipodi:cy="522.51221"
             sodipodi:cx="-80.856262" />
          <path
             id="path2832"
             sodipodi:rx="2.3368862"
             sodipodi:ry="2.3368862"
             style="fill-rule:evenodd;fill:#b3b3b3;fill-opacity:.75"
             sodipodi:type="arc"
             d="m-73.846 524.07a2.3369 2.3369 0 1 0 -4.673 0 2.3369 2.3369 0 1 0 4.673 0z"
             sodipodi:cy="524.07013"
             sodipodi:cx="-76.182487" />
          <path
             id="path3460"
             sodipodi:nodetypes="cc"
             style="stroke-opacity:.74902;stroke:#4d4d4d;stroke-width:1pt;fill:none"
             d="m-74.527 526.27c5.144 12.71 10.398 18.35 28.159 21.15" />
          <path
             id="path3461"
             sodipodi:nodetypes="ccs"
             style="fill-rule:evenodd;fill:#272727;fill-opacity:.74888"
             d="m-61.966 542.75c-5.81-3.86 2.375-12.66 2.811-19.2 3.329 17.78 0.63 21.48-2.811 19.2z" />
          <path
             id="path4083"
             sodipodi:nodetypes="ccs"
             style="fill-rule:evenodd;fill:#272727;fill-opacity:.74888"
             d="m-56.228 545.74c-4.78-5.08-12.082 4.46-18.452 5.99 18.085 0.3 21.283-2.99 18.452-5.99z" />
        </g>
        <g
           id="g4095"
           transform="matrix(-.55449 0 0 .55449 -135.18 256.09)">
          <path
             id="path4096"
             sodipodi:rx="2.9600558"
             sodipodi:ry="7.0106583"
             style="fill-rule:evenodd;fill:#000000;fill-opacity:.75"
             sodipodi:type="arc"
             d="m-77.896 522.51a2.9601 7.0107 0 1 0 -5.92 0 2.9601 7.0107 0 1 0 5.92 0z"
             transform="matrix(.97775 .20975 -.20975 .97775 114.34 22.04)"
             sodipodi:cy="522.51221"
             sodipodi:cx="-80.856262" />
          <path
             id="path4097"
             sodipodi:rx="2.9600558"
             sodipodi:ry="7.0106583"
             style="fill-rule:evenodd;fill:#000000;fill-opacity:.75"
             sodipodi:type="arc"
             d="m-77.896 522.51a2.9601 7.0107 0 1 0 -5.92 0 2.9601 7.0107 0 1 0 5.92 0z"
             transform="matrix(.19595 .98062 -.98062 .19595 460.46 498.79)"
             sodipodi:cy="522.51221"
             sodipodi:cx="-80.856262" />
          <path
             id="path4098"
             sodipodi:rx="2.9600558"
             sodipodi:ry="7.0106583"
             style="fill-rule:evenodd;fill:#000000;fill-opacity:.75"
             sodipodi:type="arc"
             d="m-77.896 522.51a2.9601 7.0107 0 1 0 -5.92 0 2.9601 7.0107 0 1 0 5.92 0z"
             transform="matrix(-0.511 .85958 -.85958 -0.511 339.12 865.25)"
             sodipodi:cy="522.51221"
             sodipodi:cx="-80.856262" />
          <path
             id="path4099"
             sodipodi:rx="2.9600558"
             sodipodi:ry="7.0106583"
             style="fill-rule:evenodd;fill:#000000;fill-opacity:.75"
             sodipodi:type="arc"
             d="m-77.896 522.51a2.9601 7.0107 0 1 0 -5.92 0 2.9601 7.0107 0 1 0 5.92 0z"
             transform="matrix(-.99991 -.013244 .013244 -.99991 -163.95 1054.2)"
             sodipodi:cy="522.51221"
             sodipodi:cx="-80.856262" />
          <path
             id="path4100"
             sodipodi:rx="2.9600558"
             sodipodi:ry="7.0106583"
             style="fill-rule:evenodd;fill:#000000;fill-opacity:.75"
             sodipodi:type="arc"
             d="m-77.896 522.51a2.9601 7.0107 0 1 0 -5.92 0 2.9601 7.0107 0 1 0 5.92 0z"
             transform="matrix(-.49178 -.87072 .87072 -.49178 -578.39 714.68)"
             sodipodi:cy="522.51221"
             sodipodi:cx="-80.856262" />
          <path
             id="path4101"
             sodipodi:rx="2.9600558"
             sodipodi:ry="7.0106583"
             style="fill-rule:evenodd;fill:#000000;fill-opacity:.75"
             sodipodi:type="arc"
             d="m-77.896 522.51a2.9601 7.0107 0 1 0 -5.92 0 2.9601 7.0107 0 1 0 5.92 0z"
             transform="matrix(.56298 -.82648 .82648 .56298 -469.36 157.79)"
             sodipodi:cy="522.51221"
             sodipodi:cx="-80.856262" />
          <path
             id="path4102"
             sodipodi:rx="2.3368862"
             sodipodi:ry="2.3368862"
             style="fill-rule:evenodd;fill:#b3b3b3;fill-opacity:.75"
             sodipodi:type="arc"
             d="m-73.846 524.07a2.3369 2.3369 0 1 0 -4.673 0 2.3369 2.3369 0 1 0 4.673 0z"
             sodipodi:cy="524.07013"
             sodipodi:cx="-76.182487" />
          <path
             id="path4103"
             sodipodi:nodetypes="cc"
             style="stroke-opacity:.74902;stroke:#4d4d4d;stroke-width:1.8035pt;fill:none"
             d="m-74.527 526.27c5.144 12.71 10.398 18.35 28.159 21.15" />
          <path
             id="path4104"
             sodipodi:nodetypes="ccs"
             style="fill-rule:evenodd;fill:#272727;fill-opacity:.74888"
             d="m-61.966 542.75c-5.81-3.86 2.375-12.66 2.811-19.2 3.329 17.78 0.63 21.48-2.811 19.2z" />
          <path
             id="path4105"
             sodipodi:nodetypes="ccs"
             style="fill-rule:evenodd;fill:#272727;fill-opacity:.74888"
             d="m-56.228 545.74c-4.78-5.08-12.082 4.46-18.452 5.99 18.085 0.3 21.283-2.99 18.452-5.99z" />
        </g>
      </g>
    </pattern>
    <pattern
       id="pattern4778"
       xlink:href="#pattern4752"
       patternTransform="matrix(.34576 .17534 -.17534 .34576 -121.27 501.47)"
       inkscape:collect="always" />
    <pattern
       id="pattern4779"
       xlink:href="#pattern4778"
       patternTransform="matrix(.15145 .076804 -.076804 .15145 -121.27 501.47)"
       inkscape:collect="always" />
    <pattern
       id="pattern1108"
       xlink:href="#pattern4779"
       patternTransform="matrix(.15145 .076804 -.076804 .15145 165.91 798.64)"
       inkscape:collect="always" />
  </defs>
  <sodipodi:namedview
     id="base"
     bordercolor="#666666"
     inkscape:pageshadow="2"
     inkscape:window-y="24"
     pagecolor="#ffffff"
     inkscape:window-height="951"
     inkscape:zoom="3.0978422"
     inkscape:window-x="0"
     borderopacity="1.0"
     inkscape:current-layer="layer1"
     inkscape:cx="71.925461"
     inkscape:cy="118.46956"
     inkscape:window-width="1280"
     inkscape:pageopacity="0.0"
     inkscape:document-units="px"
     inkscape:document-rotation="0"
     showgrid="false"
     inkscape:window-maximized="0" />
  <g
     id="layer1"
     inkscape:label="Ebene 1"
     inkscape:groupmode="layer"
     transform="translate(-278.07,-413.89)">
    <g
       id="g4268"
       transform="translate(-9.1058,116.73)">
      <path
         id="path4269"
         style="color:#000000;fill:#929292;fill-rule:evenodd"
         transform="translate(-9.5947e-5)"
         d="m 338.64,372.88 c 8.15,-2.2 23.79,-1.1 27.76,1.55 -3.97,-4.63 -4.85,-8.82 -5.29,-9.92 -3.97,1.32 -11.9,-0.22 -14.54,-1.98 -1.32,3.96 -5.29,8.15 -7.93,10.35 z" />
      <path
         id="path4270"
         sodipodi:nodetypes="cscscc"
         style="color:#000000;fill:#929292;fill-rule:evenodd"
         d="m 306.91,324.19 c -5.47,4.31 -9.12,8.4 -12.23,13.14 -1.28,1.96 -6.14,9.07 -7.15,16.39 -1.71,12.45 2.91,22.21 12.16,26.84 16.55,8.29 42.46,-5.41 46.78,-18.37 -12.46,-19.63 -32.71,-26.47 -39.56,-38 z" />
      <path
         id="path4271"
         style="color:#000000;fill:#646464;fill-rule:evenodd"
         d="m 304.72,328.28 c -2.37,0.15 -7.1,5.69 -11.34,11.69 -0.01,0.01 0,0.02 0,0.03 -1.25,3.09 -2.78,5.35 -4.04,7.91 -0.19,0.41 -0.41,0.8 -0.59,1.25 -0.53,1.3 -0.97,2.75 -1.22,4.56 v 0.03 c -0.21,1.56 -0.33,3.05 -0.34,4.5 -0.02,1.45 0.07,2.85 0.25,4.19 0.72,5.35 2.96,9.85 6.34,13.44 1.69,1.79 3.67,3.34 5.91,4.68 1.28,0.65 2.65,1.11 4.03,1.5 v -0.12 c 2.59,0.47 5.22,0.84 7.72,0.97 0.86,0.04 1.67,0.02 2.5,0 2,-0.17 4.01,-0.49 6,-0.97 1,-0.29 2,-0.59 3,-0.94 0.13,-0.04 0.27,-0.08 0.4,-0.12 0.09,-0.04 0.17,-0.07 0.25,-0.1 9.47,-3.48 18.43,-10.01 22.25,-19.44 -1.41,-2.14 -2.89,-4.17 -4.46,-6.03 -0.64,7.7 -5.31,16.81 -23.47,21 -24.48,5.65 -27.79,-16 -27.79,-22.59 0,-6.59 17.34,-25.61 14.6,-25.44 z" />
      <path
         id="path4272"
         sodipodi:nodetypes="cscscc"
         style="color:#000000;fill:url(#pattern1108)"
         d="m 306.91,324.19 c -5.47,4.31 -9.12,8.4 -12.23,13.14 -1.28,1.96 -6.14,9.07 -7.15,16.39 -1.71,12.45 2.91,22.21 12.16,26.84 16.55,8.29 42.46,-5.41 46.78,-18.37 -12.46,-19.63 -32.71,-26.47 -39.56,-38 z" />
      <path
         id="path4273"
         sodipodi:nodetypes="ccssc"
         style="color:#000000;fill:#929292;fill-rule:evenodd"
         d="m 408.5,332.28 c -4.36,9.66 -40.52,16.83 -47.06,32.1 4.53,16.35 28.94,28.58 43.15,22.06 18.53,-8.51 16.94,-24.58 15.69,-35.25 -0.77,-6.56 -5.4,-12.96 -11.78,-18.91 z" />
      <path
         id="path4274"
         style="color:#000000;fill:#646464;fill-rule:evenodd"
         d="m 408.06,332.94 c -0.7,1.15 -1.87,2.27 -3.34,3.37 0.24,0.26 0.42,0.52 0.69,0.78 7.29,7.09 9.57,12.77 9.97,17.16 0.39,4.39 1.59,17.56 -8.79,22.75 -10.38,5.19 -19.57,6.8 -30.75,-1.19 -5.29,-3.78 -10.15,-10.27 -13,-13.93 -0.36,0.54 -0.65,1.12 -0.93,1.68 0.58,1.51 0.69,2.07 1.97,5.06 1.29,3.06 3.08,5.62 5.15,7.85 2.48,2.46 5.36,4.59 8.47,6.37 5.57,2.84 11.95,4.21 18.06,4.41 -0.12,0.28 -0.22,0.5 -0.34,0.78 3.34,0.06 6.56,-0.32 9.34,-1.59 0.33,-0.15 0.54,-0.32 0.85,-0.47 1.61,-0.79 3.04,-1.66 4.34,-2.56 0.6,-0.42 1.18,-0.84 1.72,-1.29 0.42,-0.33 0.74,-0.71 1.12,-1.06 9.52,-8.77 7.87,-21.17 7.66,-30 -0.28,-2.23 -1.13,-4.44 -2.22,-6.62 l -0.06,0.06 c -2.09,-3.73 -4.22,-5.15 -9.38,-11 -0.2,-0.23 -0.33,-0.35 -0.53,-0.56 z" />
      <path
         id="path4275"
         sodipodi:nodetypes="ccssc"
         style="color:#000000;fill:url(#pattern2995)"
         d="m 408.5,332.28 c -4.36,9.66 -40.52,16.83 -47.06,32.1 4.53,16.35 28.94,28.58 43.15,22.06 18.53,-8.51 16.94,-24.58 15.69,-35.25 -0.77,-6.56 -5.4,-12.96 -11.78,-18.91 z" />
      <path
         id="path4276"
         sodipodi:nodetypes="cc"
         style="color:#000000;fill:none;stroke:#000000;stroke-width:1.75"
         transform="translate(-9.5947e-5)"
         d="m 345.86,362.2 c 6.54,3.12 10.9,3.43 15.89,2.18" />
      <path
         id="path4277"
         sodipodi:nodetypes="cc"
         style="color:#000000;fill:none;stroke:#000000;stroke-width:2.5"
         transform="translate(-9.5947e-5)"
         d="m 307.35,324.85 c 11.02,-8.81 23.8,-22.91 26,-26.44" />
      <path
         id="path4278"
         sodipodi:nodetypes="cc"
         style="color:#000000;fill:none;stroke:#000000;stroke-width:2.5"
         transform="translate(-9.5947e-5)"
         d="m 407.82,333.01 c -7.93,-9.04 -10.14,-26.44 -11.24,-28.87" />
      <path
         id="path4279"
         sodipodi:nodetypes="ccccccccccccccccc"
         style="color:#000000;fill:#000000"
         d="m 408.34,331.44 -0.31,0.62 c -0.99,2.2 -3.95,4.47 -8.03,6.72 -4.08,2.25 -9.23,4.54 -14.44,7 -10.41,4.92 -21.2,10.49 -24.59,18.41 l -0.06,0.15 0.06,0.16 c 2.32,8.37 9.64,15.6 18.19,19.94 8.54,4.33 18.19,4.79 25.51,2.34 -8.22,1.44 -16.7,0.99 -25.05,-3.25 -8.28,-4.2 -15.38,-11.18 -17.65,-19.09 3.22,-7.29 13.7,-12.88 24.03,-17.75 5.19,-2.45 10.33,-4.75 14.47,-7.03 3.82,-2.11 6.75,-4.19 8.12,-6.57 6.1,5.78 11.04,11.8 11.77,18.02 0.43,-6.78 -5.09,-13.22 -11.52,-19.2 z" />
      <path
         id="path4280"
         sodipodi:nodetypes="ccccccccccccccc"
         style="color:#000000;fill:#000000"
         d="m 307.03,323.44 c -0.14,0.11 -0.29,0.23 -0.44,0.34 -3.83,4.61 -10.54,8.45 -12.1,13.66 3.15,-4.87 7.17,-8.34 12.35,-12.5 3.6,5.66 10.2,10.19 17.44,15.62 7.41,5.55 15.43,12.08 21.6,21.69 -2.19,6.18 -9.53,12.7 -18.41,16.63 -8.99,3.96 -19.63,5.75 -27.72,1.7 5.92,4.53 18.95,3.28 28.13,-0.77 9.17,-4.05 16.82,-10.75 19.06,-17.47 0.03,-0.07 0.06,-0.14 0.09,-0.22 l -0.12,-0.21 c -6.29,-9.9 -14.55,-16.55 -22.03,-22.16 -7.49,-5.61 -14.2,-10.2 -17.54,-15.81 -0.1,-0.17 -0.2,-0.34 -0.31,-0.5 z" />
    </g>
  </g>
  <metadata
     id="metadata103">
    <rdf:RDF>
      <cc:Work>
        <dc:format>image/svg+xml</dc:format>
        <dc:type
           rdf:resource="http://purl.org/dc/dcmitype/StillImage" />
        <cc:license
           rdf:resource="http://creativecommons.org/publicdomain/zero/1.0/" />
        <dc:publisher>
          <cc:Agent
             rdf:about="http://openclipart.org/">
            <dc:title>Openclipart</dc:title>
          </cc:Agent>
        </dc:publisher>
        <dc:title></dc:title>
        <dc:date>2007-03-23T13:45:53</dc:date>
        <dc:description />
        <dc:source>https://openclipart.org/detail/3648/bikini-by-freedo</dc:source>
        <dc:creator>
          <cc:Agent>
            <dc:title>freedo</dc:title>
          </cc:Agent>
        </dc:creator>
        <dc:subject>
          <rdf:Bag>
            <rdf:li>bikini</rdf:li>
            <rdf:li>clothing</rdf:li>
          </rdf:Bag>
        </dc:subject>
      </cc:Work>
      <cc:License
         rdf:about="http://creativecommons.org/publicdomain/zero/1.0/">
        <cc:permits
           rdf:resource="http://creativecommons.org/ns#Reproduction" />
        <cc:permits
           rdf:resource="http://creativecommons.org/ns#Distribution" />
        <cc:permits
           rdf:resource="http://creativecommons.org/ns#DerivativeWorks" />
      </cc:License>
    </rdf:RDF>
  </metadata>
</svg>
