<svg xmlns="http://www.w3.org/2000/svg" xmlns:xlink="http://www.w3.org/1999/xlink" width="853.334" height="791.127" viewBox="0 0 800 741.682" xmlns:v="https://vecta.io/nano"><style><![CDATA[.B{stroke-width:1.023}.C{stroke:#806600}.D{stroke:#a80}.E{fill-rule:evenodd}.F{stroke-width:.884}.G{stroke:#666}.H{fill:#ffe680}.I{stroke-width:.864}]]></style><defs><radialGradient cx="309.86" cy="63.847" gradientTransform="matrix(1.3592,0,0,1.3245,-111.31,-20.717)" id="A" r="17.296" xlink:href="#B"/><linearGradient id="B" xlink:href="#AB"><stop offset="0" stop-color="#ffeb98"/><stop offset="1" stop-color="#eec41c"/></linearGradient><radialGradient xlink:href="#D" id="C" gradientTransform="matrix(1,0,0,0.90152,0,12.053)" cx="202.4" cy="121.02" r="6.183"/><linearGradient id="D" xlink:href="#AB"><stop offset="0" stop-color="#fff"/><stop offset="1" stop-color="#cec6a7"/></linearGradient><radialGradient cx="202.4" cy="121.02" gradientTransform="matrix(1,0,0,0.90152,0,12.053)" id="E" r="6.183" xlink:href="#AB"><stop offset="0" stop-color="#f26778"/><stop offset="1" stop-color="#aa0f23"/></radialGradient><radialGradient cx="265" cy="25" gradientTransform="matrix(2.1222,-0.03267,0.03276,2.1277,-263.35,-19.495)" id="F" r="15.5" xlink:href="#B"/><radialGradient cx="845.15" cy="248.49" gradientTransform="matrix(1.5944,2.406e-7,-1.7652e-7,1.2269,-503.38,-54.917)" id="G" r="89.322" xlink:href="#AB"><stop offset="0" stop-color="#cf0000"/><stop offset="1" stop-color="#6b0000" stop-opacity=".978"/></radialGradient><radialGradient cx="240.38" cy="88.08" gradientTransform="matrix(3.6059,-0.04923,0.02355,1.9971,-84.463,22.981)" id="H" r="51.229" xlink:href="#I"/><linearGradient id="I" xlink:href="#AB"><stop offset="0" stop-color="#ffd759"/><stop offset="1" stop-color="#c79f17"/></linearGradient><radialGradient cx="230.36" cy="102.53" gradientTransform="matrix(-4.3016,-0.12817,-0.05317,1.9223,1920.3,36.922)" id="J" r="51.229" xlink:href="#I"/><radialGradient cx="311.97" cy="95.069" gradientTransform="matrix(0.67631,2.6658e-7,0,4.0367,100.98,-288.69)" id="K" r="14.458" xlink:href="#L"/><linearGradient id="L" xlink:href="#AB"><stop offset="0" stop-color="#fff3c8"/><stop offset="1" stop-color="#f0c61c"/></linearGradient><radialGradient cx="311.97" cy="95.069" gradientTransform="matrix(1.2167,1.3387e-7,0,4.6715,-67.617,-349.05)" id="M" r="14.458" xlink:href="#L"/><radialGradient cx="315.28" cy="153.11" gradientTransform="matrix(0.97727,-0.21201,0.1567,0.72233,-78.499,103.68)" id="N" r="11.5" xlink:href="#L"/><radialGradient cx="315.06" cy="153.05" gradientTransform="matrix(-0.97727,-0.21201,-0.1567,0.72233,679.02,103.61)" id="O" r="11.5" xlink:href="#L"/><radialGradient cx="310" cy="130" gradientTransform="matrix(0.88171,-8.7034e-7,7.9352e-7,0.80388,38.834,25.031)" id="P" r="15.5" xlink:href="#B"/><radialGradient cx="310" cy="130" gradientTransform="matrix(-8.482e-7,-0.81655,0.78489,-7.9721e-7,196.83,397.49)" id="Q" r="15.5" xlink:href="#B"/><radialGradient cx="326.58" cy="144.18" gradientTransform="matrix(1,0,0,1.4251,-0.74176,-60.917)" id="R" r="10.504" xlink:href="#B"/><radialGradient xlink:href="#L" id="S" gradientTransform="matrix(0.92234,0.38638,-0.37827,0.90297,170.17,-87.888)" cx="310" cy="130" r="15.5"/><radialGradient xlink:href="#L" id="T" gradientTransform="matrix(9.2585e-7,-0.96515,0.94055,9.3299e-7,175.48,443.37)" cx="310" cy="130" r="15.5"/><radialGradient cx="310" cy="130" gradientTransform="matrix(0.92234,0.38638,-0.37827,0.90297,170.17,-87.888)" id="U" r="15.5" xlink:href="#L"/><radialGradient cx="310" cy="130" gradientTransform="matrix(9.2585e-7,-0.96515,0.94055,9.3299e-7,175.48,443.37)" id="V" r="15.5" xlink:href="#L"/><radialGradient cx="865.36" cy="100.32" gradientTransform="matrix(2.0164,0.02464,-0.00349,0.28529,-1442.6,69.965)" id="W" r="87.306" xlink:href="#L"/><radialGradient cx="312.95" cy="157.19" gradientTransform="matrix(-1.2487,-0.27089,-0.3556,1.6391,784.83,-35.282)" id="X" r="8.554" xlink:href="#L"/><radialGradient cx="296.21" cy="157.19" gradientTransform="matrix(-1.2487,-0.27089,-0.3556,1.6391,784.83,-35.282)" id="Y" r="8.554" xlink:href="#L"/><radialGradient cx="304.72" cy="149.05" gradientTransform="matrix(-1.2487,-0.27089,-0.70624,3.2554,836.71,-274.43)" id="Z" r="5.721" xlink:href="#B"/><radialGradient cx="314.99" cy="155" gradientTransform="matrix(1.5496,0,0,1.0232,-1436.5,-96.357)" id="a" r="4.525" xlink:href="#L"/><radialGradient cx="315.02" cy="155.02" gradientTransform="matrix(1.4173,0,0,0.44025,-1394.9,-5.986)" id="b" r="5.455" xlink:href="#L"/><radialGradient cx="312.95" cy="157.19" gradientTransform="matrix(1.2487,-0.27089,0.3556,1.6391,-184.83,-35.282)" id="c" r="8.554" xlink:href="#L"/><radialGradient cx="296.21" cy="157.19" gradientTransform="matrix(1.2487,-0.27089,0.3556,1.6391,-184.83,-35.282)" id="d" r="8.554" xlink:href="#L"/><radialGradient cx="304.72" cy="149.05" gradientTransform="matrix(1.2487,-0.27089,0.70624,3.2554,-236.71,-274.43)" id="e" r="5.721" xlink:href="#B"/><radialGradient cx="314.99" cy="155" gradientTransform="matrix(1.5496,0,0,1.0232,-272.02,37.182)" id="f" r="4.525" xlink:href="#L"/><radialGradient cx="315.02" cy="155.02" gradientTransform="matrix(1.4173,0,0,0.44025,-230.42,127.55)" id="g" r="5.455" xlink:href="#L"/><radialGradient cx="865.26" cy="315.04" gradientTransform="matrix(0.99986,0,0,0.4471,-566.23,42.233)" id="h" r="87.306" xlink:href="#L"/><radialGradient cx="311.98" cy="191.12" gradientTransform="matrix(1.1738,0,0,1.6643,-54.22,-126.95)" id="i" r="80.071" xlink:href="#I"/><radialGradient cx="313.52" cy="212.23" gradientTransform="matrix(0.80538,1.2859e-7,-1.8406e-7,1.1528,61.018,-32.421)" id="j" r="78" xlink:href="#AB"><stop offset="0" stop-color="#f8f4e5"/><stop offset="1" stop-color="#e6e0cb"/></radialGradient><radialGradient cx="312.01" cy="128.53" gradientTransform="matrix(2.123,-0.00802,5.1e-4,0.13557,-350.47,178.42)" id="k" r="74.983" xlink:href="#L"/><radialGradient cx="311.86" cy="93.619" gradientTransform="matrix(1.1605,0,0,0.13679,-50.077,156.09)" id="l" r="82.446" xlink:href="#L"/><radialGradient cx="312.2" cy="184.25" gradientTransform="matrix(1,-4.5681e-7,0,0.33312,-1.3e-4,122.87)" id="m" r="6.016" xlink:href="#AB"><stop offset="0" stop-color="#afc6e9"/><stop offset="1" stop-color="#afc6e9" stop-opacity="0"/></radialGradient><radialGradient xlink:href="#o" id="n" gradientTransform="matrix(1,0,0,0.2828,0,154.28)" cx="287.86" cy="215.11" r="5.359"/><linearGradient id="o" xlink:href="#AB"><stop offset="0" stop-color="#fff"/><stop offset="1" stop-color="#fff" stop-opacity="0"/></linearGradient><radialGradient cx="287.86" cy="215.11" gradientTransform="matrix(1,0,0,0.2828,0,154.28)" id="p" r="5.359" xlink:href="#o"/><radialGradient xlink:href="#o" id="q" gradientTransform="matrix(1,0,0,0.56267,0,86.809)" cx="241.17" cy="198.5" r="5.609"/><radialGradient cx="241.17" cy="198.5" gradientTransform="matrix(1,0,0,0.56267,0,86.809)" id="r" r="5.609" xlink:href="#o"/><radialGradient xlink:href="#D" id="s" cx="251.48" cy="190.41" r="2.379"/><radialGradient cx="202.4" cy="121.02" gradientTransform="matrix(1,0,0,0.90152,0,12.053)" id="t" r="6.183" xlink:href="#D"/><radialGradient cx="298.81" cy="58.941" id="u" r="1.483" xlink:href="#AB"><stop offset="0" stop-color="#fff"/><stop offset="1" stop-color="#fff" stop-opacity="0"/></radialGradient><path id="v" d="M203.78 119.41c-2.127 0-3.594 1.444-3.594 2.969s1.481 3 3.594 3 3.594-1.475 3.594-3-1.467-2.969-3.594-2.969z"/><path id="w" d="m 209.46,122.39 a 5.683,5.0741 0 1 1 -11.366,0 5.683,5.0741 0 1 1 11.366,0 z"/><path id="x" d="M396.95 134.26l14.967 6.27-7.728 18.447-5.744-2.406c2.474-8.455.656-15.44-1.496-22.311z"/><path id="y" d="M284 214.09c-.647 0-1 .353-1 1s.384 1.031 1 1.031h7.719c.616 0 1-.384 1-1.031s-.353-1-1-1H284z"/><path id="z" d="M241.16 195.84c-1.641 0-3.083.462-3.969 1.063s-1.125 1.158-1.125 1.594.239.993 1.125 1.594 2.328 1.063 3.969 1.063 3.105-.459 4-1.062 1.125-1.167 1.125-1.594-.23-.99-1.125-1.594-2.359-1.062-4-1.062z"/><path id="AA" d="m 253.35,190.41 a 1.8786,1.8786 0 1 1 -3.7572,0 1.8786,1.8786 0 1 1 3.7572,0 z"/><linearGradient id="AB" gradientUnits="userSpaceOnUse"/></defs><g transform="matrix(3.504707 0 0 3.504707 -721.48868 -16.96019)" class="E"><path transform="translate(10.136 -10.439)" d="m 326.66,63.847 a 16.7965,16.893503 0 1 1 -33.593,0 16.7965,16.893503 0 1 1 33.593,0 z" fill="url(#A)" class="C"/><g stroke="#999" class="I"><use xlink:href="#v" transform="matrix(1.0247 0 0 1.2295 111.164 -108.6196)" fill="url(#C)"/><use xlink:href="#v" transform="matrix(1.0247 0 0 1.2295 111.164 -105.3196)" fill="url(#C)"/><use xlink:href="#v" transform="matrix(1.0247 0 0 1.2295 111.164 -101.2966)" fill="url(#C)"/><use xlink:href="#v" transform="matrix(1.0247 0 0 1.2295 111.164 -96.4086)" fill="url(#C)"/><use xlink:href="#v" transform="matrix(-.18531 -1.0078 1.2093 -.22236 196.28 286.6504)" fill="url(#C)"/><use xlink:href="#v" transform="matrix(-.18531 -1.0078 1.2093 -.22236 199.53 286.6504)" fill="url(#C)"/><use xlink:href="#v" transform="matrix(-.18531 -1.0078 1.2093 -.22236 203.49 286.6504)" fill="url(#C)"/><use xlink:href="#v" transform="matrix(.18531 -1.0078 -1.2093 -.22236 443.72 286.6504)" fill="url(#C)"/><use xlink:href="#v" transform="matrix(.18531 -1.0078 -1.2093 -.22236 440.47 286.6504)" fill="url(#C)"/><use xlink:href="#v" transform="matrix(.18531 -1.0078 -1.2093 -.22236 436.51 286.6504)" fill="url(#C)"/><use xlink:href="#w" transform="matrix(.74523 0 0 .82465 168.14 -46.8526)" fill="url(#E)"/></g><g transform="translate(20.073 -.8)"><path d="M295.97 19.333c.062-4.986-2.599-10.254-6.117-13.194h20.271c-2.782 2.812-5.792 7.202-6.085 13.001 5.201.429 9.131-3.645 12.435-6.537v20.078c-3.034-3.295-7.758-6.5-12.821-6.244.35 5.045 1.98 11.129 5.931 13.602-3.229-.256-6.274-1.875-9.59-1.868s-6.905 1.64-10.295 1.868c2.904-2.613 5.957-7.279 6.85-13.409-3.848-.57-9.313.953-13.161 6.042V12.787c3.276 3.599 8.29 7.008 12.582 6.546z" fill="url(#F)" class="C"/><use xlink:href="#w" transform="matrix(1.0933 0 0 1.2245 77.134 -126.78)" fill="url(#C)" stroke="#999" class="I"/></g><g transform="matrix(1 0 0 .9552 20 .21767)" stroke="#000"><g transform="translate(-543.98 -115.12)"><g class="B"><path d="M780.55 226.76c-4.352-.324-8.802 1.07-12.888 2.656-3.468 1.346-8.007 7.856-9.873 11.173-3.205 5.698-.225 23.973.675 30.503 2.189 15.89 18.911 37.093 18.911 37.093l131.29-.344s17.788-22.465 19.904-37.825c.9-6.53 5.373-23.729 2.168-29.427-1.866-3.317-6.405-9.827-9.873-11.173-4.087-1.586-8.536-2.98-12.888-2.656-.575.043-5.328-8.276-14.697-14.132s-26.208-.374-28.598.342c-3.506 1.05-7.312.937-10.81 2.018-3.034.937-10.431 1.625-10.431 1.625h-.06c0 0-7.397-.688-10.431-1.625-3.498-1.081-7.812-.967-11.318-2.018-2.091-.627-18.344-5.042-27.954.791s-12.552 13.042-13.127 12.999z" fill="url(#G)" stroke="#500"/><path d="M787.64 187.5c-2.832-.004-5.687.22-8.183.656-5.321.931-12.666 2.515-17.689 6.469-6.593 5.19-11.699 10.032-14.705 18.532-1.852 5.238-4.136 14.901-3.292 21.282 1.613 12.191 1.481 14.006 7.867 29.195s5.106 11.533 5.106 11.533l5.384-2.719s1.33 3.793-4.983-11.22-6.027-16.941-7.437-27.601c-.469-3.546 1.533-14.219 3.015-18.407 2.546-7.198 6.35-10.724 12.736-15.751 3.209-2.526 10.071-4.448 15.013-5.313 4.057-.709 10.204-.691 14.305 0 7.097 1.195 15.936 3.291 22.919 5.282 2.815.803 6.644 1.933 10.029 2.25 5.413.508 15.843-.531 15.843-.531l-.523-6.063s-11.031.882-14.767.531c-2.428-.228-6.178-1.263-8.983-2.063-7.187-2.049-16.112-4.157-23.534-5.407-2.478-.417-5.289-.652-8.122-.656z" fill="url(#H)" class="C"/></g><g class="F G"><use xlink:href="#w" transform="matrix(1.0933 0 0 1.2245 513.75 82.133)" fill="url(#C)"/><use xlink:href="#w" transform="matrix(1.0933 0 0 1.2245 517.25 97.813)" fill="url(#C)"/><use xlink:href="#w" transform="matrix(1.0933 0 0 1.2245 516.11 65.5)" fill="url(#C)"/><use xlink:href="#w" transform="matrix(1.0933 0 0 1.2245 522.29 51.57)" fill="url(#C)"/><use xlink:href="#w" transform="matrix(1.0933 0 0 1.2245 533.7 39.736)" fill="url(#C)"/><use xlink:href="#w" transform="matrix(1.0933 0 0 1.2245 549.64 32.694)" fill="url(#C)"/><use xlink:href="#w" transform="matrix(1.0933 0 0 1.2245 566.69 31.212)" fill="url(#C)"/><use xlink:href="#w" transform="matrix(1.0933 0 0 1.2245 584.85 34.177)" fill="url(#C)"/><use xlink:href="#w" transform="matrix(1.0933 0 0 1.2245 601.16 37.512)" fill="url(#C)"/></g><path d="M900.31 187.5c2.832-.004 5.687.22 8.183.656 5.321.931 12.666 2.515 17.689 6.469 6.593 5.19 11.699 10.032 14.705 18.532 1.852 5.238 4.136 14.901 3.292 21.282-1.613 12.191-1.735 13.565-8.121 28.753s-5.404 11.607-5.404 11.607l-5.384-2.719s-1.032 3.719 5.281-11.294 6.281-16.5 7.691-27.159c.469-3.546-1.533-14.219-3.015-18.407-2.546-7.198-6.35-10.724-12.736-15.751-3.209-2.526-10.071-4.448-15.013-5.313-4.057-.709-10.204-.691-14.305 0-7.097 1.195-15.936 3.291-22.919 5.282-2.815.803-6.644 1.933-10.029 2.25-5.413.508-15.843-.531-15.843-.531l.523-6.063s11.031.882 14.767.531c2.428-.228 6.178-1.263 8.983-2.063 7.187-2.049 16.112-4.157 23.534-5.407 2.478-.417 5.289-.652 8.122-.656z" fill="url(#J)" class="B C"/><g class="F G"><use xlink:href="#w" transform="matrix(-1.0933 0 0 1.2245 1170.7 97.813)" fill="url(#C)"/><use xlink:href="#w" transform="matrix(-1.0933 0 0 1.2245 1174.2 82.133)" fill="url(#C)"/><use xlink:href="#w" transform="matrix(-1.0933 0 0 1.2245 1171.8 65.897)" fill="url(#C)"/><use xlink:href="#w" transform="matrix(-1.0933 0 0 1.2245 1165.7 51.966)" fill="url(#C)"/><use xlink:href="#w" transform="matrix(-1.0933 0 0 1.2245 1154.2 39.736)" fill="url(#C)"/><use xlink:href="#w" transform="matrix(-1.0933 0 0 1.2245 1138.3 32.694)" fill="url(#C)"/><use xlink:href="#w" transform="matrix(-1.0933 0 0 1.2245 1121.3 31.212)" fill="url(#C)"/><use xlink:href="#w" transform="matrix(-1.0933 0 0 1.2245 1103.1 34.177)" fill="url(#C)"/><use xlink:href="#w" transform="matrix(-1.0933 0 0 1.2245 1086.8 37.512)" fill="url(#C)"/></g><g transform="matrix(.92172 0 0 .82952 556.429 126.787)" stroke-width="1.17" class="C"><path d="M297.66 72.481l4.209-.784h19.755l4.656.784-.292 48.924h-27.915l-.413-48.924z" fill="url(#K)"/><path d="M301.96 71.621s7.014-4.308 9.895-4.308c3.125 0 10.124 4.308 10.124 4.308v51.204H301.96V71.621z" fill="url(#M)"/></g><g class="F G"><use xlink:href="#w" transform="matrix(1.0933 0 0 1.2245 621.342 33.301)" fill="url(#C)"/><use xlink:href="#w" transform="matrix(1.0933 0 0 1.2245 621.342 41.805)" fill="url(#C)"/><use xlink:href="#w" transform="matrix(1.0933 0 0 1.2245 621.342 48.818)" fill="url(#C)"/><use xlink:href="#w" transform="matrix(1.0933 0 0 1.2245 621.342 58.948)" fill="url(#C)"/><use xlink:href="#w" transform="matrix(1.0933 0 0 1.2245 621.342 68.689)" fill="url(#C)"/></g></g><g class="C B"><path d="M252.75 145.35c-1.683 4.632-3.388 10.429-8.542 12.527l5.371 1.709 7.214 1.651.52-.159 6.305-4.667 3.815-4.252c-6.435.405-10.99-4.046-14.683-6.809z" fill="url(#N)"/><path d="M347.49 146.02c1.683 4.632 3.347 9.471 8.501 11.57l-2.379 1.53-9.365 2.544-1.569-.507-7.35-6.671-1.531-2.379c6.435.405 9.999-3.325 13.692-6.087z" fill="url(#O)"/><g transform="translate(-12.165 -7.861)"><path d="M297.16 119.54h30c-5.005 5.413-8.301 12.108-10 20h-10c-.985-8.754-5.361-14.494-10-20z" fill="url(#P)"/><path d="M288.86 158.83v-28.937c5.415 4.827 12.112 8.007 20.007 9.646v9.646c-8.757.95-14.499 5.171-20.007 9.646z" fill="url(#Q)"/><path d="M335.84 159.02v-28.937c-5.415 4.827-12.112 8.007-20.007 9.646v9.646c8.757.95 14.499 5.171 20.007 9.646z" fill="url(#R)"/></g></g><g transform="translate(-13.256 -4.438)" class="B C"><use xlink:href="#x" fill="url(#S)"/><path d="M287.75 158.65v-28.937c5.415 4.827 12.112 8.007 20.007 9.646v9.646c-8.757.95-14.499 5.171-20.007 9.646z" fill="url(#T)" transform="matrix(.94485 .32749 -.32749 .94485 159.81 -75.979)"/></g><g transform="matrix(-1 0 0 1 613.26 -4.4378)" class="B C"><use xlink:href="#x" fill="url(#U)"/><path d="M287.75 158.65v-28.937c5.415 4.827 12.112 8.007 20.007 9.646v9.646c-8.757.95-14.499 5.171-20.007 9.646z" fill="url(#V)" transform="matrix(.94485 .32749 -.32749 .94485 159.81 -75.979)"/></g><path d="M299.87 132.52c-5.719 11.311-11.442 25.532-19.454 28.018-7.037 2.183-16.008-.349-26.727-12.238-2.941 15.149-9.672 19.295-16.278 20.605-3.314.657-7.261.879-11.558-1.125-4.855-2.264-10.156-7.103-15.495-12.385l22.178 54.059h134.76l20.159-52.974c-10.065 9.957-19.64 13.214-26.698 11.814-6.606-1.31-11.251-4.845-14.193-19.994-10.719 11.889-18.484 15.213-25.521 13.03-8.012-2.486-21.126-28.943-21.143-28.909l-.031.098z" fill="url(#W)" stroke="#540" class="B"/><g class="F G"><use xlink:href="#w" transform="matrix(1.0933 0 0 1.2245 -11.352 5.6714)" fill="url(#C)"/><use xlink:href="#w" transform="matrix(1.0933 0 0 1.2245 165.08 5.6714)" fill="url(#C)"/></g><g transform="translate(-.071 1.477)" class="B C"><path d="M348.37 137.27c-.211-3.672-.785-9.321-3.942-11.965-1.412-1.182-7.812-2.126-9.587-1.635-3.969 1.098-5.154 4.485-5.926 8.044s6.098 10.09 4.665 13.457c-.906 2.13-7.394 3.951-7.394 3.951s9.888-.459 11.945-3.548-3.978-9.442-1.12-11.992c1.278-1.14 1.298-1.04 2.709.143 3.157 2.644 6.347 14.156 6.347 14.156s2.49-7.326 2.302-10.611z" fill="url(#X)"/><path d="M349.92 137.6c1.714-3.255 4.577-8.158 8.545-9.256 1.775-.491 7.99 1.302 9.402 2.485 3.157 2.644 2.832 6.218 2.06 9.777s-9.731 6.656-9.822 10.314c-.058 2.314 5.092 6.66 5.092 6.66s-8.886-4.532-9.478-8.196 7.611-6.928 6.066-10.433c-.691-1.567-.75-1.484-2.525-.993-3.969 1.098-11.642 10.253-11.642 10.253s.769-7.699 2.302-10.611z" fill="url(#Y)"/><path d="M354.87 110.2s3.49 9.249 3.594 13.387c.046 1.851-.621 4.302-1.306 6.02-2.166 5.433-10.125 16.715-10.125 16.715s-2.568-13.565-2.288-19.408c.089-1.847.497-4.355 1.306-6.02 1.809-3.723 8.818-10.694 8.818-10.694z" fill="url(#Z)"/><g transform="matrix(-.97727 -.21201 -.21201 .97727 -566.35 -116.39)"><path d="M-953.533 58.196h10.179c.545 0 .987.442.987.987v6.118c0 .545-.442.987-.987.987h-10.179c-.545 0-.987-.442-.987-.987v-6.118c0-.545.442-.987.987-.987" fill="url(#a)"/><path d="M-954.651 60.321h12.408a.85.85 0 0 1 .849.849v2.186a.85.85 0 0 1-.849.849h-12.408a.85.85 0 0 1-.849-.849V61.17a.85.85 0 0 1 .849-.849" fill="url(#b)"/></g></g><g transform="translate(.591 1.477)" class="B"><g class="C"><path d="M251.63 137.27c.211-3.672.785-9.321 3.941-11.965 1.412-1.182 7.812-2.126 9.587-1.635 3.969 1.098 5.154 4.485 5.926 8.044s-6.098 10.09-4.665 13.457c.906 2.13 7.394 3.951 7.394 3.951s-9.888-.459-11.945-3.548 3.978-9.442 1.12-11.992c-1.278-1.14-1.298-1.04-2.709.143-3.157 2.644-6.347 14.156-6.347 14.156s-2.49-7.326-2.302-10.611z" fill="url(#c)"/><path d="M250.08 137.6c-1.714-3.255-4.577-8.158-8.545-9.256-1.775-.491-7.99 1.302-9.402 2.485-3.157 2.644-2.832 6.218-2.06 9.777s9.731 6.656 9.822 10.314c.058 2.314-5.093 6.66-5.093 6.66s8.886-4.532 9.478-8.196-7.611-6.928-6.066-10.433c.691-1.567.75-1.484 2.525-.993 3.969 1.098 11.642 10.253 11.642 10.253s-.769-7.699-2.302-10.611z" fill="url(#d)"/><path d="M245.13 110.2s-3.49 9.249-3.594 13.387c-.046 1.851.621 4.302 1.306 6.02 2.166 5.433 10.125 16.715 10.125 16.715s2.568-13.565 2.288-19.408c-.089-1.847-.497-4.355-1.306-6.02-1.809-3.723-8.818-10.694-8.818-10.694z" fill="url(#e)"/><path d="M210.977 191.73h10.179c.545 0 .987.442.987.987v6.118c0 .545-.442.987-.987.987h-10.179c-.545 0-.987-.442-.987-.987v-6.118c0-.545.442-.987.987-.987" fill="url(#f)" transform="matrix(.977268 -.212007 .212007 .977268 0 0)"/></g><path transform="matrix(.977268 -.212007 .212007 .977268 0 0)" d="M209.859 193.86h12.408a.85.85 0 0 1 .849.849v2.186a.85.85 0 0 1-.849.849h-12.408a.85.85 0 0 1-.849-.849v-2.186a.85.85 0 0 1 .849-.849" fill="url(#g)" class="D"/></g><path d="M300.19 142.83c-1.583 3.14-3.26 6.276-5.062 9.188-3.386 5.468-7.603 11.683-13.667 13.565-7.288 2.261-15.945-.557-25.301-8.252-1.508 4.029-3.394 7.317-5.687 9.781-3.669 3.942-8.174 5.779-12.125 6.563-3.032.601-6.563.656-11.007.042-1.66-.229-4.268-1.275-6.809-3.333-2.776-2.248-5.288-5.54-6.586-6.246l17.086 41.235 137.66-.264 15.54-39.963c-1.65.821-4.416 3.613-7.113 5.411-2.737 1.824-5.409 2.65-7.641 2.829-3.703.297-7.235.176-9.664-.305-3.91-.775-8.217-2.653-11.344-6.562-1.852-2.315-3.23-5.409-4.437-9-3.449 2.926-6.829 6.217-10.156 7.502-5.271 2.035-10.446 1.958-14.844.594-3.858-1.197-6.292-3.836-8.844-6.812s-4.949-7.645-7.094-11.033c-1.165-1.84-1.947-3.283-2.906-4.937z" fill="url(#h)" class="B D"/><g transform="translate(-12.55 -5.81)" class="B"><g transform="translate(-1.393 -24.738)"><g transform="translate(2.096 26.862)"><path d="M232.41 187.07L285 175c16.416-.406 38.584-.28 55 0l51.555 11.814-5.543 20.681h-148.01l-5.592-20.422z" fill="url(#i)" class="C"/><path d="M242.37 209.17c7.167-6.216 10.351-3.949 28.645-7.843 14.537-3.094 24.89-3.999 35-5 1.752-.173 13.248-.175 15 0 9.914.993 20.73 1.932 35 5 18.228 3.919 20.559 3.065 27.726 9.281 2.534 2.198 7.274 7.818 7.274 10.719 0 3.099-3.498 5.389-5.518 6.037-8.689 2.785-11.203-2.146-29.482-6.037-14.548-3.097-24.881-3.998-35-5-1.095-.108-13.905-.107-15 0-10.557 1.027-19.891 1.823-35 5-18.135 3.813-22.013 9.408-30.778 5.778-3.099-1.284-4.222-2.532-4.222-5.778 0-2.754 3.821-9.959 6.355-12.157z" fill="url(#j)" stroke="#917c6f" transform="translate(-1.511 1.294)"/><path d="M241.899 219.994s2.349-1.804 3.537-2.099c1.476-.366 3.568.586 5.053.262 1.493-.325 4.548-2.362 4.548-2.362s-.112 2.107-.505 2.886c-.547 1.085-1.867 2.11-2.779 2.886-.634.54-3.057 1.531-3.848 1.756-1.391.396-3.227-.444-3.227-.444s3.453-.379 3.537-1.574c.035-.496-.905-.712-1.36-.868-1.417-.485-4.957-.444-4.957-.444zm43.22-8.56s-2.157 1.684-3.248 1.96c-1.356.342-3.276-.547-4.64-.245-1.371.304-4.176 2.205-4.176 2.205s.103-1.967.464-2.695c.503-1.013 1.715-1.97 2.552-2.695.582-.504 2.807-1.429 3.533-1.639 1.277-.37 2.963.414 2.963.414s-3.171.353-3.248 1.47c-.032.463.831.665 1.249.81 1.302.453 4.551.415 4.551.415zm20.18-1.72s2.55.992 3.675.941c1.397-.063 2.98-1.468 4.373-1.571 1.4-.104 4.634.909 4.634.909s-.665-1.854-1.22-2.447c-.773-.825-2.209-1.393-3.22-1.845-.703-.315-3.1-.56-3.856-.552-1.33.014-2.718 1.25-2.718 1.25s3.138-.575 3.534.472c.164.434-.605.876-.963 1.135-1.116.809-4.239 1.708-4.239 1.708zm76.45 8.48s-2.349-1.804-3.537-2.099c-1.476-.366-3.568.586-5.053.262-1.493-.325-4.548-2.362-4.548-2.362s.112 2.107.505 2.886c.547 1.085 1.867 2.11 2.779 2.886.634.54 3.057 1.531 3.848 1.756 1.391.396 3.227-.444 3.227-.444s-3.453-.379-3.537-1.574c-.035-.496.905-.712 1.36-.868 1.418-.485 4.957-.444 4.957-.444zm-42.69-8.03s2.157 1.684 3.248 1.96c1.356.342 3.276-.547 4.64-.245 1.371.304 4.176 2.205 4.176 2.205s-.103-1.967-.464-2.695c-.503-1.013-1.715-1.97-2.552-2.695-.582-.504-2.807-1.429-3.533-1.639-1.277-.37-2.963.414-2.963.414s3.171.353 3.248 1.47c.032.463-.831.665-1.249.81-1.302.453-4.551.415-4.551.415z" fill="#483e37"/><g class="C"><path d="M304.24 193.84c-9.611 0-26.675 2.423-40.125 5.531-15.324 3.542-26.25 7.844-26.25 7.844s-.558 2.155-.256 3.009c.353 1 1.925 2.813 1.925 2.813s11.054-4.377 25.956-7.822c13.016-3.008 30.199-5.375 38.75-5.375h14.719c10.186 0 28.209 1.89 41.469 5.094 13.313 3.216 23.193 8.237 23.193 8.237s2.017-.697 2.558-1.729c.548-1.045.192-3.584.192-3.584s-10.56-5.392-24.537-8.768c-13.925-3.364-31.969-5.25-42.875-5.25H304.24z" fill="url(#k)"/><path d="M303.47 171.89c-10.575 0-29.963 1.779-44.76 5.246-16.859 3.949-28.093 8.915-28.093 8.915s-.614 2.403-.282 3.355c.388 1.115 2.463 1.931 2.463 1.931s11.03-5.689 27.425-9.529c14.32-3.355 33.84-5.072 43.248-5.072h16.194c11.207 0 31.036 2.108 45.624 5.68 14.646 3.587 25.517 9.185 25.517 9.185s1.854-.595 2.45-1.745c.603-1.166-.409-3.193-.409-3.193s-10.633-5.153-26.01-8.919c-15.32-3.751-35.172-5.854-47.171-5.854h-16.194z" fill="url(#l)"/></g></g><g transform="translate(1.134 27.612)"><path d="M304.97 177.25c-2.134 0-3.875 1.741-3.875 3.875V188c0 2.134 1.741 3.875 3.875 3.875h16c2.134 0 3.875-1.741 3.875-3.875v-6.875c0-2.134-1.741-3.875-3.875-3.875h-16z" fill="#fea" class="D"/><path d="M306.14 179.629h13.665c1.522 0 2.756 1.234 2.756 2.756v4.358c0 1.522-1.234 2.756-2.756 2.756H306.14c-1.522 0-2.756-1.234-2.756-2.756v-4.358c0-1.522 1.234-2.756 2.756-2.756" fill="#2c5aa0"/><path d="M307.144 182.629c-.49 0-.75.26-.75.75v2.344c0 .49.29.781.75.781H318.8c.46 0 .75-.291.75-.781v-2.344c0-.49-.26-.75-.75-.75h-11.656z" fill="#3771c8"/><path transform="matrix(.6632 0 0 1.5005 101.924 -93.128)" d="M306.38 182.88c-.145 0-.16.035-.156.031s-.031.012-.031.156v2.344c0 .133.051.176.063.188s.015.031.125.031h11.656c.11 0 .114-.02.125-.031s.063-.054.063-.187v-2.344c0-.145-.035-.16-.031-.156s-.012-.031-.156-.031H306.38z" fill="url(#m)"/></g><path d="M271.515 208.548l8.192-1.382c1.785-.301 3.616.119 5.091 1.168s2.473 2.641 2.774 4.425-.119 3.616-1.168 5.091-2.641 2.473-4.425 2.774l-8.192 1.382c-1.785.301-3.616-.119-5.091-1.168s-2.473-2.641-2.774-4.425.119-3.616 1.168-5.091 2.641-2.473 4.425-2.774" class="D H"/><path d="M272.148 210.528a4.72 4.72 0 0 0-3.893 5.474c.441 2.611 2.874 4.364 5.479 3.924l7.611-1.284c2.605-.44 4.329-2.894 3.888-5.505a4.72 4.72 0 0 0-5.474-3.893l-7.611 1.284z" fill="#0a4"/><path d="M272.622 213.339c-1.121.189-1.752 1.076-1.562 2.197s1.106 1.778 2.202 1.593l7.611-1.284c1.096-.185 1.746-1.107 1.557-2.228s-1.076-1.752-2.197-1.562l-7.611 1.284z" fill="#00d455"/><use xlink:href="#y" transform="matrix(.650938 -.109834 .286623 1.698686 23.812565 -119.967094)" fill="url(#n)"/><path d="M356.693 208.548l-8.192-1.382c-1.785-.301-3.616.119-5.091 1.168s-2.473 2.641-2.774 4.425.119 3.616 1.168 5.091 2.641 2.473 4.425 2.774l8.192 1.382c1.785.301 3.616-.119 5.091-1.168s2.473-2.641 2.774-4.425-.119-3.616-1.168-5.091-2.641-2.473-4.425-2.774" class="D H"/><path d="M356.061 210.528a4.72 4.72 0 0 1 3.893 5.474c-.441 2.611-2.874 4.364-5.479 3.924l-7.611-1.284c-2.605-.44-4.329-2.894-3.888-5.505a4.72 4.72 0 0 1 5.474-3.893l7.611 1.284z" fill="#0a4"/><path d="M355.586 213.339c1.121.189 1.752 1.076 1.562 2.197s-1.106 1.778-2.202 1.593l-7.611-1.284c-1.096-.185-1.746-1.107-1.557-2.228s1.076-1.752 2.197-1.562l7.611 1.284z" fill="#00d455"/><use xlink:href="#y" transform="matrix(-.650938 -.109834 -.286623 1.698686 597.718265 -121.489364)" fill="url(#p)"/></g><path d="M240.58 192.439c-2.322.731-4.264 2.009-5.566 3.653s-1.983 3.795-1.333 5.858 2.44 3.436 4.449 4.037 4.333.536 6.655-.195 4.257-2.009 5.566-3.653 2.015-3.798 1.363-5.868-2.465-3.431-4.479-4.028-4.333-.536-6.655.195z" class="D H"/><path d="M241.208 194.432c-1.956.616-3.543 1.714-4.537 2.969s-1.393 2.651-.994 3.917 1.526 2.182 3.059 2.64 3.463.449 5.419-.167 3.565-1.721 4.566-2.978 1.393-2.652.994-3.917-1.519-2.184-3.059-2.64-3.493-.44-5.449.176z" fill="#c83737"/><path d="M240.855 196.414c-1.565.493-2.802 1.367-3.466 2.206s-.725 1.443-.594 1.858.526.875 1.552 1.182 2.539.314 4.105-.179 2.824-1.37 3.496-2.215.722-1.451.594-1.858-.517-.876-1.552-1.182-2.569-.305-4.134.188z" fill="#d35f5f"/><use xlink:href="#z" transform="matrix(.72549 -.22848 .30708 .97509 4.52018 60.8885)" fill="url(#q)"/><g transform="matrix(-.95382 -.30038 -.30038 .95382 673.70062 82.22199)"><path d="M241.16 191.5c-2.435 0-4.671.636-6.406 1.813s-3.031 3.024-3.031 5.188 1.296 4.011 3.031 5.188 3.971 1.813 6.406 1.813 4.664-.638 6.406-1.812 3.063-3.017 3.063-5.187-1.32-4.013-3.062-5.187-3.971-1.812-6.406-1.812z" class="D H"/><path d="M241.16 193.59c-2.051 0-3.894.571-5.219 1.469s-2.125 2.11-2.125 3.438.8 2.54 2.125 3.438 3.168 1.469 5.219 1.469 3.917-.57 5.25-1.469 2.125-2.111 2.125-3.437-.792-2.539-2.125-3.437-3.199-1.469-5.25-1.469z" fill="#c83737"/></g><use xlink:href="#z" transform="matrix(-.95382 -.30038 -.30038 .95382 673.71192 81.46335)" fill="#d35f5f"/><use xlink:href="#z" transform="matrix(-.72549 -.22848 -.30708 .97509 618.70001 59.422)" fill="url(#r)"/><g stroke="gray"><use xlink:href="#AA" transform="translate(.886 .671)" fill="url(#s)"/><use xlink:href="#AA" transform="translate(9.34 -2.574)" fill="url(#s)"/><use xlink:href="#AA" transform="translate(3.705 9.827)" fill="url(#s)"/><use xlink:href="#AA" transform="translate(12.159 6.582)" fill="url(#s)"/><use xlink:href="#AA" transform="translate(6.651 3.678)" fill="url(#s)"/><use xlink:href="#AA" transform="matrix(.97752 .21085 -.21085 .97752 82.614 -55.681)" fill="url(#s)"/><use xlink:href="#AA" transform="matrix(.97752 .21085 -.21085 .97752 91.562 -57.071)" fill="url(#s)"/><use xlink:href="#AA" transform="matrix(.97752 .21085 -.21085 .97752 83.439 -46.137)" fill="url(#s)"/><use xlink:href="#AA" transform="matrix(.97752 .21085 -.21085 .97752 92.387 -47.527)" fill="url(#s)"/><use xlink:href="#AA" transform="matrix(.97752 .21085 -.21085 .97752 87.615 -51.526)" fill="url(#s)"/><use xlink:href="#AA" transform="matrix(-1 0 0 1 624.81 .83492)" fill="url(#s)"/><use xlink:href="#AA" transform="matrix(-1 0 0 1 616.36 -2.4099)" fill="url(#s)"/><use xlink:href="#AA" transform="matrix(-1 0 0 1 622 9.9902)" fill="url(#s)"/><use xlink:href="#AA" transform="matrix(-1 0 0 1 613.54 6.7453)" fill="url(#s)"/><use xlink:href="#AA" transform="matrix(-1 0 0 1 619.05 3.8421)" fill="url(#s)"/><use xlink:href="#AA" transform="matrix(-.97752 .21085 .21085 .97752 543.09 -55.517)" fill="url(#s)"/><use xlink:href="#AA" transform="matrix(-.97752 .21085 .21085 .97752 534.14 -56.907)" fill="url(#s)"/><use xlink:href="#AA" transform="matrix(-.97752 .21085 .21085 .97752 542.26 -45.974)" fill="url(#s)"/><use xlink:href="#AA" transform="matrix(-.97752 .21085 .21085 .97752 533.31 -47.363)" fill="url(#s)"/><use xlink:href="#AA" transform="matrix(-.97752 .21085 .21085 .97752 538.08 -51.362)" fill="url(#s)"/></g></g><use xlink:href="#w" transform="matrix(1.0933 0 0 1.2245 77.21 -14.38)" fill="url(#t)" class="F G"/><path transform="matrix(1.2917 0 0 1.0833 -88.32 68.7)" d="m 300.3,58.941 a 1.48295,1.48295 0 1 1 -2.9659,0 1.48295,1.48295 0 1 1 2.9659,0 z" fill="url(#u)" class="B"/></g></g></svg>