<svg xmlns="http://www.w3.org/2000/svg" width="234.331" height="139.843" viewBox="0 0 62 37" xmlns:v="https://vecta.io/nano"><defs><clipPath id="A"><path d="M370.22 226.82l19.698 28.032s73.741 12.122 89.904-3.283l-5.303-2.02 6.061-7.071 7.576-8.586 11.364-13.89 4.798-8.839-2.02-3.536.505-14.647-37.376-9.596-73.236 8.334-10.354 16.668-11.617 18.435z" fill="#fff"/></clipPath><radialGradient id="B" cx="421.15" gradientUnits="userSpaceOnUse" cy="204.87" r="31.562" gradientTransform="matrix(0.053156,1.4599,-1.267,0.055297,658.34,-420.95)"><stop offset="0" stop-color="8a8a8a"/><stop offset="1"/></radialGradient><radialGradient id="C" cx="409.54" gradientUnits="userSpaceOnUse" cy="210.66" r="31.062" gradientTransform="matrix(1.0817,0.95105,-0.70896,0.96675,115.13,-389.7)"><stop offset="0" stop-color="#8a8a8a"/><stop offset="1" stop-color="#8a8a8a" stop-opacity="0"/></radialGradient></defs><path d="M12.343 26.895l5.212 7.417s19.511 3.207 23.787-.869l-1.403-.535 1.604-1.871 2.005-2.272 3.007-3.675 1.27-2.339-.535-.935.134-3.875-9.889-2.539-19.377 2.205-2.739 4.41-3.074 4.878z" fill="#fff"/><g transform="matrix(.264583 0 0 .264583 -85.611129 -33.116531)" clip-path="url(#A)"><ellipse transform="matrix(1.5051 0 0 1.3746 -197.25 -73.696)" cx="421.486" cy="203.455" rx="31.062" ry="38.512" fill="url(#B)"/><ellipse transform="matrix(1.0943 0 0 .99941 -24.083 2.6463)" cx="421.486" cy="203.455" rx="31.062" ry="38.512" fill="url(#C)"/><ellipse transform="matrix(.42571 0 0 .3888 286.38 127.23)" cx="421.486" cy="203.455" rx="31.062" ry="38.512" fill="#e2e2e2"/></g><g fill="#252525"><path d="M16.753 34.179s11.76 5.212 26.86-.802l-3.074-.935c1.269-.824 3.651-1.648 6.147-2.472l-2.472-.334c-.132-1.374 2.879-2.3 5.078-3.341l-2.806.134c.527-.935 2.348-1.871 4.276-2.806l-2.339.2c1.375-.809 2.801-1.611 6.615-2.071l-7.885-.267C39.53 38.899 27.764 34.561 16.752 34.18zm-6.17-17.912S30.71 9.652 47.72 12.015l-3.307-1.039 5.103.472s-22.017-6.898-39.309 4.63" stroke="#252525" stroke-width=".265"/><path d="M.283 7.763l6.709-2.268-.756 1.512c1.337-1.206 3.262-2.101 5.67-2.74l-.661 1.228c1.961-1.496 3.117-1.382 4.63-1.984l-2.268 1.606s14.93-7.37 47.625-2.079C45.778-.375 28.429-.407 9.448 2.475l1.134-1.039S1.983 4.081.282 7.766z" stroke="#000" stroke-width=".265"/><path d="M10.405 29.168c2.587-2.369 4.212-2.606 7.417-9.221l.735-1.403c21.687-3.674 23.793.79 33.076 2.272l4.544.401-8.753-3.074 9.02.2c-3.377-.663-7.471-1.057-9.555-2.205l6.481-.802c-3.161-.112-6.615-.15-8.419-.601l6.281-2.873c-3.429.77-6.91 1.627-9.822 1.537l4.878-1.67c-11.513 1.507-21.689 3.515-31.806 5.546l-2.005 3.541 3.14-1.47c-1.296 3.421-2.853 6.755-5.212 9.822z" stroke="#252525" stroke-width=".265"/></g></svg>