<svg xmlns="http://www.w3.org/2000/svg" width="427.324" height="800" xmlns:v="https://vecta.io/nano"><path d="M74.282 0v25.527H63.335v1.128c-1.915 8.554-6.873 19.882-24.65 26.112 0 0-.073 0-.081 0a6.55 6.55 0 1 0 .084 13.119h24.65v17.13h10.946v652.684H0V800h427.324v-64.299H309.505c9.655-5.39 15.574-15.641 15.417-26.697V274.869h15.751v181.534a23.4 23.4 0 0 0 35.193 20.544 23.4 23.4 0 0 0 11.6-20.544V270.023v-30.457c0-28.04-22.597-50.637-50.637-50.637H174.473c-28.04 0-50.596 22.598-50.596 50.637v28.828a23.4 23.4 0 0 0 0 1.629v4.846 181.534a23.4 23.4 0 0 0 35.193 20.544 23.4 23.4 0 0 0 11.6-20.544V274.869h15.793v434.134c-.149 11.065 5.788 21.319 15.458 26.697h-86.066V83.017h10.946v-17.13h125.464c-29.005 1.754-51.974 25.784-51.974 55.233 0 30.59 24.769 55.4 55.358 55.4s55.4-24.81 55.4-55.4c0-29.449-22.967-53.479-51.975-55.233h63.589a6.55 6.55 0 1 0 0-13.119h-24.399c-51.003-1.543-99.157-1.196-136.411-7.144-15.088-2.409-27.298-13.09-35.053-19.511v-.585h-10.946V0H74.284zm172.342 456.319h18.132v252.684c-.149 11.065 5.788 21.319 15.458 26.697h-49.007c9.655-5.39 15.575-15.641 15.417-26.697V456.319z" fill="#fff" stroke="#000" stroke-width="7"/></svg>