<svg xmlns="http://www.w3.org/2000/svg" viewBox="0 0 1920 1619" xmlns:v="https://vecta.io/nano"><style><![CDATA[.B{stroke-width:.5}.C{fill:#4a2314}.D{stroke:#4a2314}.E{fill:#57706a}.F{stroke:#57706a}.G{fill:#944429}.H{stroke:#944429}.I{fill:#f6c46f}.J{stroke:#f6c46f}.K{fill:#6e3420}.L{stroke:#6e3420}.M{fill:#de9c52}.N{stroke:#de9c52}]]></style><path d="M1068.25 112.3c19.39-19.83 50.86-25.66 76.61-16.11 9.33 3.87 18.4 9.19 24.96 17.01 5.69 6.4 10.11 13.9 13.09 21.92 1.04 2.51 1.65 5.24 3.11 7.57 13.72-3.82 28.04-6.98 42.35-5.12 8.92 1.02 17.71 4.57 24.35 10.71 8.19 7.95 11.58 19.56 11.95 30.72.03 11.16-2.37 22.65-8.63 32.04-5.75 7.88-14.35 13.31-23.48 16.48-7.96 2.68-16.2 4.54-24.54 5.53-29.9 3.94-60.04.68-90.02-.19-18.75-.77-37.31 2.51-55.98 3.48-13.21 1.21-26.55.84-39.69-.81-12.24-2.5-25.07-6.64-33.66-16.2-4.81-4.65-8.82-10.55-9.5-17.35-1.39-8.76 2.76-17.78 9.52-23.29 6.59-5.68 14.98-8.82 23.38-10.64 5.55-1.25 11.29-.93 16.86-2.08-1.91-3-4.97-5.06-6.78-8.14-5.79-8.64-6.61-19.64-4.89-29.65 1.73-9.11 6.74-18.25 15.19-22.66 6.7-3.6 14.87-2.58 21.55.51 4.17 1.9 7.37 5.34 11.39 7.49 1.1.82 2.05-.64 2.86-1.22zm540.71 149.63c14.58-8.18 31.37-11.98 48.04-11.9 19.99-.04 40.03 6.85 55.56 19.49 12.13 10.08 21.1 23.67 26.43 38.47 1.05 2.7 1.74 5.56 3.15 8.13 5.16-.59 9.98-2.76 15.06-3.78 13.99-3.05 28.56-4.67 42.8-2.47 14.54 2.02 28.78 9.93 36.36 22.79 6.68 10.53 8.39 23.39 8.11 35.64-.59 10.81-2.98 21.64-7.87 31.35-2.61 4.79-5.65 9.54-10.02 12.9-7.1 5.66-14.94 10.5-23.59 13.39-20.53 7.08-42.39 9.34-64.01 9.46-10.65 1.1-21.31-.2-31.97-.21-26.97-.56-53.96-3.83-80.93-1.45-27.65 2.13-55.33 5.96-83.11 4.13-15.18-1.18-30.69-4.09-43.94-11.95-9.42-5.16-17.39-13.04-22.41-22.55-3.43-6.84-4.74-14.92-2.69-22.37 2.48-10.6 11.01-18.59 20.12-23.89 13.81-8.02 30.08-10.07 45.79-10.12-4.71-4.26-9.54-8.6-12.51-14.32-6.44-12.09-7.01-26.75-3.43-39.8 2.51-7.4 5.91-14.83 11.83-20.13 6.67-6.62 16.81-9.03 25.89-7.22 9.28 2.18 17.43 7.66 24.23 14.17 7-6.74 14.35-13.36 23.11-17.76zM275.02 297.02c31.07-5.24 65.06-1.63 91.68 16.27 14.81 9.92 26.29 24.65 32.41 41.37 10.93-1.9 21.73-4.86 32.85-5.54 10.74-1.36 21.63-1.46 32.41-.55 10.52 1.58 21.37 3.62 30.37 9.64 9.91 5.77 17.78 15.34 20.56 26.56 2.14 7.18 2.15 14.79 1.42 22.2-.54 6.36-3.27 12.22-5.74 18.02-5.95 13.48-19.69 21.44-33.09 26.01-12.08 4.94-25.09 6.85-37.92 8.72-45.67 5.91-91.75 1.8-137.58.79-28.87-1.47-57.64 2.64-86.45 3.79-16.16.86-32.37 1.29-48.54.23-17.9-1.07-36.1-4.42-52.09-12.86-9.81-5.71-19.79-13.05-23.94-24.04-3.24-8.67-.29-18.68 6.37-24.88 10.53-10.31 25.02-15.19 39.21-17.88 7.93-1.36 15.98-2.29 24.04-2.08 1.83-.09 3.82.25 5.5-.67-6.67-4.36-12.96-9.83-16.53-17.1-7.53-15.07-3.6-34.18 7.98-46.08 8.43-8.05 20.51-12.03 32.07-10.29 11.14.76 20.72 7.04 30.06 12.55 3.11-.79 5.2-3.58 7.78-5.34 13.86-10.08 30.48-15.63 47.17-18.84z" fill="#d6d6d6" stroke="#d6d6d6" class="B"/><path d="M682 483.41l69.59-.03c-.12 5.3.24 10.64-.21 15.93-1.72.31-3.48.23-5.17.61v64.02c-.23 10.47-.01 20.95-.18 31.43l-.13 48.58c-1.95.39-3.94.42-5.91.45l-39.99-.06c-4.3-.03-8.62.3-12.88-.32-.62-26.68.07-53.4-.36-80.09l-.03-63.89c-1.45-.58-3.05-.36-4.56-.59.95-5.24 1.34-10.9-.17-16.04z" class="B C D"/><path fill="#1f0a02" stroke="#1f0a02" d="M682 483.41c1.51 5.14 1.12 10.8.17 16.04-.86-5.29-.6-10.73-.17-16.04z" class="B"/><path fill="#fefefe" stroke="#fefefe" d="M1027.77 514.77c7.05-8.8 22.76-7.83 28.56 1.89 2.67 3.86 2.98 8.7 2.77 13.25-1.14 4.04-3.11 8.03-6.53 10.61-5.91 4.7-14.82 5.2-21.12 1.01-3.78-2.4-6.28-6.35-7.76-10.5-.85-5.62-.01-12 4.08-16.26z" class="B"/><path d="M1059.1 529.91l41.83 32.43 63.27 49.45c19.54 16.02 39.88 31.03 59.55 46.9l15.46 12.03c1.58 1.41 3.72 1.64 5.77 1.65l95.02-.04c3.02 0 6.1-.41 9.1.29l-92.1.06c-5.09.12-10.35-.74-15.25 1.04-12.27.33-24.56.03-36.83.18-3.58.59-5.85-2.59-8.39-4.48l-141.85-114.11c-4.61-3.33-8.5-7.7-13.56-10.36l-85.13 74.08-60.23 52.72c-1.15.84-2.25 2.13-3.79 2.07l-407.28-.07c6.4-.93 12.88-.43 19.32-.61l354.01.04c2.19-.07 4.54-.37 6.28-1.87l104.41-91.57c5.64-5.42 12.1-10 17.32-15.83-28.99-.67-58.02.07-87.03-.13-19 .19-38.02-.47-57.01.53l-63.98.03c-4.7.01-9.43.22-14.09-.43l.48-.61 85.64.04 96.96-.2c13.56-.01 27.15.25 40.7-.44 5.32-3.93 9.97-8.72 15.08-12.92 6.95-6.28 14.3-12.12 20.91-18.75 1.48 4.15 3.98 8.1 7.76 10.5 6.3 4.19 15.21 3.69 21.12-1.01 3.42-2.58 5.39-6.57 6.53-10.61z" class="B C D"/><path fill="#fffefe" stroke="#fffefe" d="M955.99 619.03l85.13-74.08c5.06 2.66 8.95 7.03 13.56 10.36l141.85 114.11c2.54 1.89 4.81 5.07 8.39 4.48l36.83-.18 112.38.18c3.62.17 7.74-.28 10.74 2.22 5.95 4.03 5.45 14.38-.9 17.78-2.92 2.14-6.68 1.63-10.05 2.15-.79 9.62.7 19.47-.64 29.01l.06-28.99-.87-.13c-8.13-.65-16.32-.11-24.47-.28h-102c-6.6.27-13.32-.59-19.82.44l-.8 2.04c-2.78 8.43-6.33 16.61-8.68 25.18-2.09-4.05-3.04-8.53-4.11-12.92l-5.84-23.05c-.75-2.68-1.07-5.85-3.58-7.53l-122.93-97.76c-4.92-4.22-10.24-7.95-15.16-12.17-1.62-1.31-3.17-2.77-5.09-3.59-1.13.26-1.95 1.14-2.81 1.84L910.53 683.52c-1.56 1.41-3.27 2.74-4.38 4.55-5.35 11.26-8.69 23.45-14.58 34.45-3.26-8.78-5.83-17.81-9.21-26.53-11.41-.79-22.91-.11-34.36-.33H470.99c-4.03.05-8.07-.22-12.08.19l-.15 1.1c-.32 9.39-.09 18.8-.1 28.19-1-9.63.17-19.39-.53-29.05-2.37-2.05-5.94-2.75-7.36-5.86-4-6.12.09-15.1 7.35-16.08 8.19-.61 16.46.32 24.67-.28l1.9-.12 407.28.07c1.54.06 2.64-1.23 3.79-2.07l60.23-52.72z" class="B"/><path fill="#d9f4e8" stroke="#d9f4e8" d="M1103.32 561.53c9.18-.8 18.46-.16 27.68-.45l64.87.17.16.98c-31.08.17-62.16-.05-93.23.15l.52-.85z" class="B"/><path fill="#deefe5" stroke="#deefe5" d="M762.92 562.35c19.35-.61 38.72-.21 58.08-.3 9.67.18 19.35-.3 29.01.25l.03 1.04c-28.55.05-57.09.12-85.64-.04l-1.48-.95z" class="B"/><path d="M1100.93 562.34l1.87.04 93.23-.15 48.97.01c5.83.17 11.71-.39 17.52.27l22.17 26.8c2.07 2.77 4.86 5.06 6.34 8.24-7.88 4.75-13.54 12.14-20.72 17.76-7.42 5.88-13.68 13.03-21 19.01-6.39 6.31-13.63 11.67-20.1 17.89-2.09 1.91-4.38 3.77-5.46 6.48l-59.55-46.9c-21.46-15.98-42.32-32.83-63.27-49.45z" class="B K L"/><path d="M619.24 568.26c2.67-1.87 5.11-4.91 8.72-4.54l55.05-.15c1.25-.01 2.5.11 3.75.36l.36 80.09c4.26.62 8.58.29 12.88.32l39.99.06c1.97-.03 3.96-.06 5.91-.45 13.79-10.45 26.89-21.79 40.36-32.66 8.68-7.33 17.62-14.35 26.1-21.92 1.6-1.4 3.18-2.9 5.09-3.88 3.97-1.38 9.01.54 12.25-2.79 5.53-5.01 11.49-9.63 16.22-15.46-21.31-.31-42.62.2-63.93-.01-4.17.04-8.87-.38-12.31 2.46-4.12 3.22-8.19 6.49-12.47 9.5-1.9 1.57-4.37 2.86-5.16 5.36 2.3.25 4.63.31 6.95.55-1.72 3.19-4.92 5.05-7.58 7.34-1.62 1.26-3.12 3.13-5.39 2.93l.18-31.43c5.86-.68 11.83-.47 17.71-.03 4.66.65 9.39.44 14.09.43l63.98-.03c18.99-1 38.01-.34 57.01-.53l87.03.13c-5.22 5.83-11.68 10.41-17.32 15.83L864.3 671.31c-1.74 1.5-4.09 1.8-6.28 1.87l-354.01-.04c-6.44.18-12.92-.32-19.32.61l-1.9.12c.98-1.38 2.25-2.52 3.58-3.55l132.87-102.06z" class="B G H"/><path d="M1037.18 568.14c.86-.7 1.68-1.58 2.81-1.84 1.92.82 3.47 2.28 5.09 3.59 4.92 4.22 10.24 7.95 15.16 12.17-5.94 6.46-13.01 11.76-18.96 18.21l-42.05 39.98-48.56 46.4c-5.85 5.77-13.41 10.5-16.36 18.55-2.34 6.37-5.9 12.22-8.14 18.61.73.8 1.67 1.16 2.8 1.08l268.49.06c23.83-.58 47.7-.08 71.54-.24l52.75.18c-2.21 7.08-.82 14.73-.84 22.05l-.92-.03c-49.99-.32-100 .11-150-.23-111-.03-222-.04-332.99.12l-231.02-.1c-37.36.31-74.73-.14-112.08.23-.45-7.31-.49-14.69.02-21.98 17.01-.57 34.06-.08 51.08-.24h278l67.51-.19 1.06-2c5.89-11 9.23-23.19 14.58-34.45 1.11-1.81 2.82-3.14 4.38-4.55l126.65-115.38z" class="B M N"/><path d="M769.68 569.69c3.44-2.84 8.14-2.42 12.31-2.46l63.93.01c-4.73 5.83-10.69 10.45-16.22 15.46-3.24 3.33-8.28 1.41-12.25 2.79-1.91.98-3.49 2.48-5.09 3.88-8.48 7.57-17.42 14.59-26.1 21.92-13.47 10.87-26.57 22.21-40.36 32.66.35-16.19-.01-32.39.13-48.58 2.27.2 3.77-1.67 5.39-2.93 2.66-2.29 5.86-4.15 7.58-7.34-2.32-.24-4.65-.3-6.95-.55.79-2.5 3.26-3.79 5.16-5.36 4.28-3.01 8.35-6.28 12.47-9.5z" class="B K L"/><path d="M1060.24 582.06l122.93 97.76c2.51 1.68 2.83 4.85 3.58 7.53l5.84 23.05c1.07 4.39 2.02 8.87 4.11 12.92l.76 1.63-268.49-.06c-1.13.08-2.07-.28-2.8-1.08 2.24-6.39 5.8-12.24 8.14-18.61 2.95-8.05 10.51-12.78 16.36-18.55l48.56-46.4c14.26-13.06 27.86-26.83 42.05-39.98 5.95-6.45 13.02-11.75 18.96-18.21m-19.86 33.38c-14.32 2.08-27.17 10.86-34.93 22.97-6.12 9.97-8.97 21.99-7.41 33.64 2.65 22.95 22.78 42.46 45.92 43.94 16.47 1.8 33.3-5.54 43.74-18.27 13.68-16.23 15.4-41.36 3.78-59.18-10.33-17.04-31.48-26.64-51.1-23.1z" class="B I J"/><path d="M1270.31 615.31c7.18-5.62 12.84-13.01 20.72-17.76 1.64 1.13 2.9 2.73 4.16 4.29l57.12 68.8c.64 1.02 1.91 1.9 1.82 3.26-37.46-.22-74.92.12-112.38-.18 4.9-1.78 10.16-.92 15.25-1.04l92.1-.06c-3-.7-6.08-.29-9.1-.29-31.68.01-63.35-.04-95.02.04-2.05-.01-4.19-.24-5.77-1.65l-15.46-12.03c1.08-2.71 3.37-4.57 5.46-6.48 6.47-6.22 13.71-11.58 20.1-17.89 7.32-5.98 13.58-13.13 21-19.01z" class="B G H"/><path fill="#fdfdfd" stroke="#fdfdfd" d="M1040.38 615.44c19.62-3.54 40.77 6.06 51.1 23.1 11.62 17.82 9.9 42.95-3.78 59.18-10.44 12.73-27.27 20.07-43.74 18.27-23.14-1.48-43.27-20.99-45.92-43.94-1.56-11.65 1.29-23.67 7.41-33.64 7.76-12.11 20.61-20.89 34.93-22.97m-27.14 45.19c-.76 3.87-.82 7.91.06 11.79 1.39 11.5 9.32 21.91 19.68 26.98 13.72 7.09 31.92 4.45 42.75-6.69 7.68-7.35 11.94-18.17 11.06-28.79-.62-14.61-11.15-28.84-25.33-32.66-4.46-2.29-9.66-2.12-14.53-2-16.75.65-31.98 14.69-33.69 31.37z" class="B"/><path fill="#2b3836" stroke="#2b3836" d="M1013.24 660.63c1.71-16.68 16.94-30.72 33.69-31.37 4.87-.12 10.07-.29 14.53 2-3.09.76-6.25 1.15-9.35 1.84-9.67 2.67-17.62 9.79-22.63 18.32-6.75 11.88-7.12 26.99-1.13 39.25 1.32 3.36 3.81 5.98 6.33 8.47l-1.7.26c-10.36-5.07-18.29-15.48-19.68-26.98.92-3.89.89-7.92-.06-11.79z" class="B"/><path d="M1061.46 631.26c14.18 3.82 24.71 18.05 25.33 32.66.88 10.62-3.38 21.44-11.06 28.79-10.83 11.14-29.03 13.78-42.75 6.69l1.7-.26c-2.52-2.49-5.01-5.11-6.33-8.47-5.99-12.26-5.62-27.37 1.13-39.25 5.01-8.53 12.96-15.65 22.63-18.32 3.1-.69 6.26-1.08 9.35-1.84z" class="B E F"/><path fill="#0f1815" stroke="#0f1815" d="M1013.24 660.63c.95 3.87.98 7.9.06 11.79-.88-3.88-.82-7.92-.06-11.79z" class="B"/><path fill="#240700" stroke="#240700" d="M458.91 695.85c4.01-.41 8.05-.14 12.08-.19H848c11.45.22 22.95-.46 34.36.33-3.55 1.72-7.58.65-11.36.84-137.41.1-274.83-.13-412.24.12l.15-1.1z" class="B"/><path d="M882.36 695.99c3.38 8.72 5.95 17.75 9.21 26.53l-1.06 2c-22.48.45-45.01.05-67.51.19H545c-17.02.16-34.07-.33-51.08.24-11.74.44-23.51.05-35.26.19.01-9.39-.22-18.8.1-28.19l412.24-.12c3.78-.19 7.81.88 11.36-.84z" class="B C D"/><path fill="#240800" stroke="#240800" d="M1206.18 696.1c6.5-1.03 13.22-.17 19.82-.44h102c8.15.17 16.34-.37 24.47.28a13.23 13.23 0 0 1-3.44.94c-46.03-.06-92.07.01-138.1-.04-1.95.11-3.7.96-5.55 1.3l.8-2.04z" class="B"/><path d="M1352.47 695.94l.87.13-.06 28.99c-10.51.06-21.04.3-31.53-.17-17.58-.43-35.17-.06-52.75-.18-23.84.16-47.71-.34-71.54.24l-.76-1.63c2.35-8.57 5.9-16.75 8.68-25.18 1.85-.34 3.6-1.19 5.55-1.3l138.1.04a13.23 13.23 0 0 0 3.44-.94z" class="B C D"/><path d="M493.9 746.93l112.08-.23 231.02.1 332.99-.12 150 .23c.78 11.01.11 22.06.33 33.09v165c.04 5.34.08 10.69-.31 16.03-1.25 1.6-2.72 3.26-4.97 2.89-272.35-.07-544.71.03-817.06-.05-1.56.11-2.83-.79-4.03-1.64-.71-11.37-.09-22.83-.3-34.23V776c.17-9.69-.35-19.4.25-29.07m111.57 3.49l-1.2-.04c-.79.67-1.1 1.54-.94 2.61l.02 164.01c.14 3-.55 6.2.67 9.06-5.34.09-10.69-.34-16.02.06-.54 6.19-.65 12.54.02 18.73 7.97.59 15.99.1 23.98.26h176.06c1.54.08 3.91-.06 3.77-2.19.09-5.55.21-11.12-.09-16.66-3.58-.42-7.2-.34-10.8-.34l.14-1.93-.36-174.66c-17.55-.59-35.15-.07-52.72-.24-39-.01-78.01.01-117.02-.02-1.86.16-4.17-.3-5.51 1.35m304.78-1.11l-.18 2.49c-.51 13.39-.08 26.8-.22 40.2v105c.22 9.52-.44 19.08.29 28.58-4.29.92-8.66.08-12.98.59-.84.91-.66 2.29-.76 3.45.05 4.93-.41 9.9.14 14.83 3.35 1.14 6.98.54 10.46.68l257-.02c9.96-.19 19.96.38 29.91-.3.71-5.98 1.21-12.18.42-18.13-4.03-1.54-8.92-.28-13.26-.7.18-1.33.28-2.65.31-3.97l-.02-162.01c-.09-3.56.39-7.2-.55-10.66L939 749.21c-9.58.25-19.19-.64-28.75.1z" class="B I J"/><path fill="#c2dcbe" stroke="#c2dcbe" d="M1319.99 746.91l.92.03c.78 3.28.21 6.67.49 10 .34 2.03 1.27 3.94 1.39 6.02l-.01 174.04c.16 7.63-.33 15.29.22 22.9 1.26 5.07 8.6-.21 9.79 5.03l-.88-.09c-3.83-.68-7.73-.57-11.55-1.2l-.35-2.61c.39-5.34.35-10.69.31-16.03V780c-.22-11.03.45-22.08-.33-33.09z" class="B"/><path d="M605.47 750.42c1.34-1.65 3.65-1.19 5.51-1.35l117.02.02c17.57.17 35.17-.35 52.72.24l.36 174.66-.14 1.93-72.94.13c-32.42-.25-64.85.27-97.27-.15 3.13-3.27 5.84-7 9.45-9.75 2.97-.63 6.04-.55 9.06-.66h44.79c1.53-.1 3.18.12 4.61-.57l.21-149.83 19.14-.05.09 150.18c15.28.54 30.62.06 45.92.22 6.73-.29 13.56.63 20.22-.48l.71-.17-.04-139.59c.01-3.12.01-6.24.33-9.34 4.49-4.95 9.53-9.39 13.7-14.61-17.64-.02-35.28 0-52.92.03-32.65-.82-65.33-.26-98-.42-7.51-.2-15.06.49-22.53-.44zm304.78-1.11c9.56-.74 19.17.15 28.75-.1l241.81.13c.94 3.46.46 7.1.55 10.66l.02 162.01c-.03 1.32-.13 2.64-.31 3.97-88.43-.05-176.87.03-265.29-.03 4.18-2.54 8.08-5.54 12.41-7.86 11.92.61 23.87.06 35.81.24 7.78-.18 15.6.39 23.36-.3.86-6.61.01-13.37.31-20.03l.15-135.26c4.42-.55 8.88-.5 13.32-.4l.21 155.33.73.45c23.29.49 46.62.06 69.92.21 4.02-.05 8.06.21 12.07-.25l.13-1.08.1-143.95.07-10.39 13.48-.04c.15 3.18.18 6.37.18 9.57l-.04 145.56.76.16c8.37.95 16.83.16 25.25.42 12.69-.15 25.41.27 38.1-.2l.13-1.06.12-143.24.08-10c5.25-4.49 11.88-7.09 16.87-11.9-10.75-.64-21.54-.09-32.3-.27H970c-19.98.1-39.96-.2-59.93.14l.18-2.49z" fill="#fdfefe" stroke="#fdfefe" class="B"/><path d="M604.27 750.38l1.2.04c7.47.93 15.02.24 22.53.44l98 .42 52.92-.03c-4.17 5.22-9.21 9.66-13.7 14.61-3.94-1.37-8.15-.66-12.22-.76-18.34-.03-36.68.07-55.01-.06-6.38-.02-12.76.06-19.14.05-19.6.16-39.22-.25-58.82.2-.9 8.19-.09 16.48-.36 24.71v113c.02 4.02-.22 8.07.25 12.08 3.08.4 6.21.42 9.32.41-3.02.11-6.09.03-9.06.66-3.61 2.75-6.32 6.48-9.45 9.75l-6.71.16c-1.22-2.86-.53-6.06-.67-9.06l-.02-164.01c-.16-1.07.15-1.94.94-2.61zm305.8 1.42c19.97-.34 39.95-.04 59.93-.14h177c10.76.18 21.55-.37 32.3.27-4.99 4.81-11.62 7.41-16.87 11.9-1.04-2.03-3.57-1.35-5.4-1.51-19.72.3-39.47-.3-59.18.3l-13.48.04c-27.72-.67-55.49-.05-83.23-.32-4.44-.1-8.9-.15-13.32.4l-.71.01c-9.68-.84-19.41-.15-29.11-.37-9.86.08-19.73-.15-29.57.05l-.24 155.66c-4.33 2.32-8.23 5.32-12.41 7.86-1.9.02-3.77-.22-5.64-.37-.73-9.5-.07-19.06-.29-28.58V792c.14-13.4-.29-26.81.22-40.2z" fill="#adadad" stroke="#adadad" class="B"/><path fill="#415350" stroke="#415350" d="M928.43 762.43c9.84-.2 19.71.03 29.57-.05 9.7.22 19.43-.47 29.11.37.22 3.36.52 6.78-.15 10.12-13.34.23-26.69.03-40.04.06-1.51.04-3.01.17-4.45.55-.78 3.11-.56 6.34-.53 9.53l.15 133.76c13.95.59 27.95.06 41.92.2a15.15 15.15 0 0 1 3.35 1.06c-7.76.69-15.58.12-23.36.3-11.94-.18-23.89.37-35.81-.24l.24-155.66z" class="B"/><path d="M1001.14 762.34l83.23.32-.07 10.39c-25.46-.29-50.92.04-76.37-.18-1.81-.01-3.62.14-5.35.67l.09 119.46c-.13 8.05.35 16.12-.45 24.15l-.14.97-.73-.45-.21-155.33zm96.71.28c19.71-.6 39.46 0 59.18-.3 1.83.16 4.36-.52 5.4 1.51-.12 3.33-.07 6.66-.08 10-3.06-.77-6.22-1.07-9.35-.96-16.69.2-33.38-.07-50.07.15-1.69.02-3.31-.4-4.9-.83 0-3.2-.03-6.39-.18-9.57z" fill="#40534f" stroke="#40534f" class="B"/><path d="M987.11 762.75l.71-.01-.15 135.26c-.3 6.66.55 13.42-.31 20.03a15.15 15.15 0 0 0-3.35-1.06c-13.97-.14-27.97.39-41.92-.2l-.15-133.76c-.03-3.19-.25-6.42.53-9.53 1.44-.38 2.94-.51 4.45-.55l40.04-.06c.67-3.34.37-6.76.15-10.12z" class="B E F"/><path d="M620.03 765.29c19.6-.45 39.22-.04 58.82-.2l-.21 149.83c-1.43.69-3.08.47-4.61.57-14.93-.07-29.86-.1-44.79 0-3.11.01-6.24-.01-9.32-.41-.47-4.01-.23-8.06-.25-12.08V790c.27-8.23-.54-16.52.36-24.71m10.3 10.98l-.03 137.46c3.52.62 7.12.39 10.69.36l36.06-.16c.69-8.62.07-17.29.29-25.93l.03-108.02c.06-1.31-.12-2.56-.53-3.76-5.55-.85-11.24-.02-16.84-.3-9.89.25-19.82-.51-29.67.35zm67.66-11.23l55.01.06c4.07.1 8.28-.61 12.22.76-.32 3.1-.32 6.22-.33 9.34-5.54 1.37-11.27.47-16.9.71-16.29.2-32.62-.31-48.89.21-.69 8.26.17 16.58-.14 24.88l.15 112.92c17.61.37 35.26 0 52.89.13 4.06.17 8.37-.73 12.22.91-6.66 1.11-13.49.19-20.22.48-15.3-.16-30.64.32-45.92-.22l-.09-150.18z" fill="#415450" stroke="#415450" class="B"/><path d="M1098.03 772.19c1.59.43 3.21.85 4.9.83l50.07-.15c3.13-.11 6.29.19 9.35.96l-.12 143.24-60.28.04a15.95 15.95 0 0 0-3.2.8l-.76-.16.04-145.56zm-95.45 1.35c1.73-.53 3.54-.68 5.35-.67l76.37.18-.1 143.95-81.98.15c.8-8.03.32-16.1.45-24.15l-.09-119.46zm-254.59 2.37c5.63-.24 11.36.66 16.9-.71l.04 139.59-.71.17c-3.85-1.64-8.16-.74-12.22-.91-17.63-.13-35.28.24-52.89-.13L698.96 801c.31-8.3-.55-16.62.14-24.88 16.27-.52 32.6-.01 48.89-.21zm-117.66.36c9.85-.86 19.78-.1 29.67-.35 5.6.28 11.29-.55 16.84.3.41 1.2.59 2.45.53 3.76L677.34 888c-.22 8.64.4 17.31-.29 25.93-12.01.38-24.04-.05-36.06.16-3.57.03-7.17.26-10.69-.36l.03-137.46z" class="E F B"/><path fill="#3b4f49" stroke="#3b4f49" d="M1002.22 917.15l81.98-.15-.13 1.08c-4.01.46-8.05.2-12.07.25-23.3-.15-46.63.28-69.92-.21l.14-.97z" class="B"/><path fill="#3b5049" stroke="#3b5049" d="M1098.75 917.91a15.95 15.95 0 0 1 3.2-.8l60.28-.04-.13 1.06c-12.69.47-25.41.05-38.1.2-8.42-.26-16.88.53-25.25-.42z" class="B"/><path d="M910.14 925.58l5.64.37 265.29.03c4.34.42 9.23-.84 13.26.7.79 5.95.29 12.15-.42 18.13-9.95.68-19.95.11-29.91.3-85.67.01-171.33-.02-257 .02-3.48-.14-7.11.46-10.46-.68-.55-4.93-.09-9.9-.14-14.83.1-1.16-.08-2.54.76-3.45 4.32-.51 8.69.33 12.98-.59zm-322.14.54c5.33-.4 10.68.03 16.02-.06 2.23.01 4.47-.08 6.71-.16l97.27.15 72.94-.13c3.6 0 7.22-.08 10.8.34.3 5.54.18 11.11.09 16.66.14 2.13-2.23 2.27-3.77 2.19H612c-7.99-.16-16.01.33-23.98-.26-.67-6.19-.56-12.54-.02-18.73z" class="M N B"/><path fill="#f8d08a" stroke="#f8d08a" d="M1315.04 963.92c2.25.37 3.72-1.29 4.97-2.89l.35 2.61c3.82.63 7.72.52 11.55 1.2-.34 4.34-.05 8.7-.25 13.06.02 1.16-1.05 2.01-1.95 2.55-2.65-.04-5.28-.5-7.92-.4h-1.65l-662.13.03c-54.71.06-109.41-.13-164.11.1-4.45-.07-8.96.13-13.34-.71-1.1-4.99-.62-10.18-.25-15.22 4.3-.88 8.75.1 13.04-.74l.6-1.28c1.2.85 2.47 1.75 4.03 1.64l817.06.05z" class="B"/><path fill="#df9c52" stroke="#df9c52" d="M493.9 980.18l164.11-.1 662.13-.03c.27 3.64.21 7.29-.11 10.93L669 990.9c-58.36.07-116.73-.14-175.1.11-.45-3.59-.52-7.25 0-10.83z" class="B"/><path fill="#f1ba67" stroke="#f1ba67" d="M1320.14 980.05h1.65c-1.37 3.14-1.23 6.59-1.14 9.95l.01 209c.22 5.82-.24 11.68.68 17.46.63 6.49.32 13.04-.45 19.5-.48 24.34-.15 48.69-.25 73.04l-.01 169.99c-.1 3.53.03 7.07.33 10.61l-.73-.04c-4.64-1.38-9.49-.46-14.23-.63-34.36-.13-68.75.27-103.1-.26.9-.77 1.81-1.63 3.11-1.42 3.93-.21 7.91.32 11.81-.42.91-8.9.09-17.9.35-26.83l.01-97c.32-7.69-.73-15.48.67-23.1 1.64-.06 3.3-.08 4.95-.24.59-5.13.6-10.34.17-15.48-5.04-1.92-10.74-.48-16.03-.94l-.17-155.24.19-48.2c9.98.05 19.99-.48 29.96.28 4.72 3.56 8.63 8.04 12.75 12.25 6.88 6.47 12.63 14.01 19.58 20.42 6.94 6.41 12.59 14.06 19.72 20.28 7.48 7.52 14.97 15.06 21.87 23.12 2.32 2.47 4.6 5.42 8.01 6.39l.03-172.54.15-39.02c.32-3.64.38-7.29.11-10.93z" class="B"/><path d="M493.9 991.01l175.1-.11 651.03.08c-.37 13-.04 26.01-.15 39.02l-.03 172.54c-3.41-.97-5.69-3.92-8.01-6.39-6.9-8.06-14.39-15.6-21.87-23.12-7.13-6.22-12.78-13.87-19.72-20.28-6.95-6.41-12.7-13.95-19.58-20.42-4.12-4.21-8.03-8.69-12.75-12.25l1.97-.75c.27-5.54 1.18-11.38-.58-16.73 7.08-2.9 8.4-13.71 2.32-18.27-2.77-2.61-6.78-2.52-10.31-2.8-1.36-.83-2.65-1.75-3.97-2.59l-55.53-38.8c-2.4-1.59-4.7-3.96-7.79-3.83-73.71-.01-147.41.04-221.12-.02-3.95-.31-6.77 2.87-9.91 4.72l-60.21 38.7-3.1 1.85c-4.36.49-9.63-.35-12.95 3.15-3.52 3.21-3.95 8.63-2.34 12.89 1.35 2.8 4.15 4.47 6.62 6.21.59 5.25.03 10.54.37 15.8 10.58.35 21.18-.03 31.77.19.42 10.73.1 21.46.2 32.2l-.18 43.32c-6.95-3.08-12.54-8.43-18.65-12.83-8.04-6.02-16.68-11.2-24.45-17.58-4.87-4.26-10.82-7.04-15.61-11.38-5.11-4.74-11.49-7.74-16.8-12.2-2.24-1.66-4.4-4.19-7.48-3.55-6.65-3.36-12.18-8.49-18.19-12.8l-100.29-74.67c-3.28-2.36-6.28-5.14-9.82-7.09-3.81 1.28-6.64 4.51-10.01 6.64l-101.71 74.27c-6.59 5.16-13.84 9.52-20.1 15.05-.4 8.92-.3 17.91-.04 26.85 5.18.52 10.42.3 15.59-.23l.13 88.2c.3 11.54-.61 23.15.45 34.66a127.44 127.44 0 0 0 13.4-.06l.22-122.8c4.05.54 8.14.43 12.22.3.92 1.08 1.61 2.33 2.05 3.7-1.17 1.47-1.57 3.28-1.42 5.16l.16 288.1h-41.86c-1.36.21-3.14-.41-4.16.75-1.33 4.26-.56 8.79-.74 13.19.12 4.05-.72 8.26.67 12.19l.22.78c-17.66-.35-35.32.05-52.98-.18-.77-10.24-.11-20.54-.33-30.8V1035c.18-14.66-.35-29.35.25-43.99z" class="B I J"/><path d="M933 1041.01c3.14-1.85 5.96-5.03 9.91-4.72l221.12.02c3.09-.13 5.39 2.24 7.79 3.83l55.53 38.8c-1.44.46-2.85 1.05-4.32 1.28l-333.03.02c-5.75.14-11.5.1-17.21-.53l60.21-38.7zm-261.12 8.85c3.37-2.13 6.2-5.36 10.01-6.64 3.54 1.95 6.54 4.73 9.82 7.09L792 1124.98c6.01 4.31 11.54 9.44 18.19 12.8.99 9.31.33 18.72.45 28.07-6.1.94-12.32.4-18.45.15-3.52-3.32-7.43-6.17-11.23-9.14-3.48-2.81-6.99-5.56-10.6-8.19-5.34-4.43-10.83-8.68-16.31-12.93-3.59-2.77-7.03-5.74-10.77-8.31l-.76-.58c-4.11-3.43-8.24-6.82-12.53-10.01-3.73-3.03-7.45-6.07-11.36-8.87-5.45-4.42-10.93-8.83-16.58-12.99-.37-.26-1.1-.8-1.46-1.07-1.9-1.73-3.84-3.4-5.93-4.88-4.34-3.18-8.21-6.99-12.78-9.84-5.05 2.33-8.95 6.66-13.49 9.86-2.27 1.58-4.45 3.29-6.57 5.07-6.21 4.5-12.26 9.23-18.25 14.02-3.94 2.78-7.76 5.73-11.54 8.72l-13.37 10.34c-3.38 2.43-6.7 4.96-9.86 7.68-5.97 4.15-11.62 8.74-17.31 13.26-3.91 2.77-7.64 5.79-11.46 8.69-3.53 2.47-6.84 5.24-10.21 7.92a35.32 35.32 0 0 0-4.2 1.05c-5.17.53-10.41.75-15.59.23-.26-8.94-.36-17.93.04-26.85 6.26-5.53 13.51-9.89 20.1-15.05l101.71-74.27z" class="G H B"/><path fill="#eae3e1" stroke="#eae3e1" d="M668.39 1089.05c4.54-3.2 8.44-7.53 13.49-9.86 4.57 2.85 8.44 6.66 12.78 9.84-4.07 1.51-8.43.98-12.67.96-4.54-.13-9.21.58-13.6-.94z" class="B"/><path d="M1223.03 1080.22c1.47-.23 2.88-.82 4.32-1.28l3.97 2.59-150.32.14c-70.44-.08-140.88.15-211.31-.11l3.1-1.85c5.71.63 11.46.67 17.21.53l333.03-.02z" class="B K L"/><path fill="#fffffe" stroke="#fffffe" d="M856.74 1084.71c3.32-3.5 8.59-2.66 12.95-3.15l211.31.11 150.32-.14c3.53.28 7.54.19 10.31 2.8 6.08 4.56 4.76 15.37-2.32 18.27l-2.56.99-142.75.16H902c-13.42.1-26.84-.23-40.25.17l-.73-.11c-2.47-1.74-5.27-3.41-6.62-6.21-1.61-4.26-1.18-9.68 2.34-12.89z" class="B"/><path fill="#d9d2ce" stroke="#d9d2ce" d="M661.82 1094.12l6.57-5.07c4.39 1.52 9.06.81 13.6.94 4.24.02 8.6.55 12.67-.96 2.09 1.48 4.03 3.15 5.93 4.88-5.61 2.25-11.73 1-17.58 1.26-7.07-.26-14.29.87-21.19-1.05z" class="B"/><path fill="#e9e3e1" stroke="#e9e3e1" d="M643.57 1108.14c5.99-4.79 12.04-9.52 18.25-14.02 6.9 1.92 14.12.79 21.19 1.05 5.85-.26 11.97.99 17.58-1.26l1.46 1.07c-8.01 2.29-14.07 8.35-21.12 12.44l-.31 1.48c-12.34-.41-24.77.79-37.05-.76z" class="B"/><path fill="#fdfdfc" stroke="#fdfdfc" d="M680.93 1107.42c7.05-4.09 13.11-10.15 21.12-12.44 5.65 4.16 11.13 8.57 16.58 12.99-4.79 1.22-9.75.73-14.63.8-7.8-.03-15.59-.03-23.38.13l.31-1.48z" class="B"/><path fill="#4a2315" stroke="#4a2315" d="M1236.75 1103.59l2.56-.99c.05 5.56-.82 11.26.58 16.73l-1.97.75c-9.97-.76-19.98-.23-29.96-.28-1.58-.01-3.13.05-4.68.13-25.09-.49-50.19-.09-75.29-.22-78.27.06-156.55-.12-234.83.09-10.59-.22-21.19.16-31.77-.19-.34-5.26.22-10.55-.37-15.8l.73.11c1.27.69 2.73.93 4.18 1.04l371.91-.18-1.09-1.19z" class="B"/><path fill="#2c0300" stroke="#2c0300" d="M1239.31 1102.6c1.76 5.35.85 11.19.58 16.73-1.4-5.47-.53-11.17-.58-16.73z" class="B"/><path fill="#220100" stroke="#220100" d="M861.75 1103.92c13.41-.4 26.83-.07 40.25-.17h192l142.75-.16 1.09 1.19c-123.97.26-247.94-.09-371.91.18-1.45-.11-2.91-.35-4.18-1.04z" class="B"/><path fill="#dad1cf" stroke="#dad1cf" d="M632.03 1116.86c3.78-2.99 7.6-5.94 11.54-8.72 12.28 1.55 24.71.35 37.05.76 7.79-.16 15.58-.16 23.38-.13 4.88-.07 9.84.42 14.63-.8 3.91 2.8 7.63 5.84 11.36 8.87-21.26.61-42.53-.02-63.79.32-11.39-.24-22.78.05-34.17-.3z" class="B"/><path fill="#ebe3e1" stroke="#ebe3e1" d="M618.66 1127.2c4.4-3.51 8.87-6.95 13.37-10.34 11.39.35 22.78.06 34.17.3-4.14 3.56-9.08 6.03-13.1 9.74l73.9.21c5.17.06 10.34-.12 15.52-.26l.76.58c-5.38.96-10.85.21-16.27.4-24.85-.24-49.7.08-74.55-.12-11.26-.85-22.55.11-33.8-.51z" class="B"/><path fill="#fefefd" stroke="#fefefd" d="M666.2 1117.16l63.79-.32c4.29 3.19 8.42 6.58 12.53 10.01l-15.52.26c-24.63-.35-49.27.16-73.9-.21 4.02-3.71 8.96-6.18 13.1-9.74z" class="B"/><path fill="#adadad" stroke="#adadad" d="M893.16 1119.8l234.83-.09 75.29.22c-4.67 5.47-12.07 7.51-16.8 12.92-19.5.04-39.01-.35-58.48.18-.5 3.69-.44 7.43-.4 11.16-.18-3.71-.15-7.44-.57-11.12-5.28-.51-10.59-.12-15.87-.2l-86.16-.08c-11.33.14-22.69-.28-34 .21-.45 3.38-.43 6.8-.43 10.22-.11-3.4-.09-6.8-.54-10.16-5.28-.49-10.59-.14-15.87-.2l-46.16-.05c-4.24.07-8.5-.23-12.7.32l-.16 162.87c-.03 2.91-.18 5.84.09 8.77 3.61.4 7.24.29 10.87.33-6.87 4.88-13.88 9.54-20.97 14.07-1.9 1.14-3.48 2.7-5.09 4.19-2.34.28-4.69.16-7.01-.09.72-11.41.16-22.85.34-34.27l-.19-93.68c.4-14.44.08-28.88.18-43.32-.1-10.74.22-21.47-.2-32.2z" class="B"/><path fill="#fefeff" stroke="#fefeff" d="M1203.28 1119.93l4.68-.13c-.38 16.06-.12 32.13-.19 48.2l.17 155.24-154.94.14c-50.99-.01-101.98.01-152.96-.02 1.61-1.49 3.19-3.05 5.09-4.19 7.09-4.53 14.1-9.19 20.97-14.07 2.36-.08 4.72-.09 7.09-.12l40.83-.13c.52-24.27.07-48.57.22-72.85l-.03-88.1-.05-11.04c5.28.06 10.59-.29 15.87.2.45 3.36.43 6.76.54 10.16l.06 136.78c.24 8.08-.52 16.21.41 24.26l.16.7 119.86-.13c.6-21.59.08-43.22.25-64.83l.01-97.83c.02-3.11-.06-6.21-.16-9.3 5.28.08 10.59-.31 15.87.2.42 3.68.39 7.41.57 11.12l-.05 156.81a28.26 28.26 0 0 0 .3 3.87l57.8.01.8-.1.03-171.93c4.73-5.41 12.13-7.45 16.8-12.92z" class="B"/><path fill="#dad2cf" stroke="#dad2cf" d="M608.8 1134.88c3.16-2.72 6.48-5.25 9.86-7.68 11.25.62 22.54-.34 33.8.51l74.55.12c5.42-.19 10.89.56 16.27-.4 3.74 2.57 7.18 5.54 10.77 8.31l-81.05-.02c-11.6.01-23.19-.18-34.78.34-9.79-.7-19.76.9-29.42-1.18z" class="B"/><path fill="#415450" stroke="#415450" d="M915.3 1133.13c4.2-.55 8.46-.25 12.7-.32l46.16.05c.09 3.68.08 7.36.05 11.04-8.7-1.12-17.5-.27-26.24-.56-4.56.4-9.36-.66-13.76.87-.84 9.56-.08 19.19-.33 28.79l.02 126.06c-.06 1.97-.33 3.96-.71 5.92l-7.09.12c-3.63-.04-7.26.07-10.87-.33-.27-2.93-.12-5.86-.09-8.77l.16-162.87z" class="B"/><path d="M991 1133c11.31-.49 22.67-.07 34-.21l86.16.08c.1 3.09.18 6.19.16 9.3-4.56 1.89-9.55 1.03-14.32 1.15-34.93.06-69.87-.09-104.79.07-.87 4.48-.38 9.07-.42 13.61v135c-.04 4.09.48 8.27-.75 12.26-.93-8.05-.17-16.18-.41-24.26l-.06-136.78c0-3.42-.02-6.84.43-10.22zm137 .03c19.47-.53 38.98-.14 58.48-.18l-.03 171.93-.8.1c-.93-5.93-.38-11.93-.46-17.88l-.01-130c-.05-4.34.28-8.7-.26-13.01-10.61-.8-21.29-.09-31.92-.33-8.47.29-16.99-.68-25.4.53-.04-3.73-.1-7.47.4-11.16z" fill="#425350" stroke="#425350" class="B"/><path fill="#e9e4e1" stroke="#e9e4e1" d="M591.49 1148.14c5.69-4.52 11.34-9.11 17.31-13.26 9.66 2.08 19.63.48 29.42 1.18-5.44 4.82-12.38 7.59-17.49 12.82-5.25.23-10.5.1-15.74.12-4.51-.04-9.14.64-13.5-.86z" class="B"/><path fill="#a04d09" stroke="#a04d09" d="M251.06 1136.98c6.62-.58 13.24-2.21 19.89-1.13 1.15.36 3.24.47 3.34 2.04-2.13 2.45-5.06 4.64-5.47 8.11.76 5.57 6.47 8.16 11.02 10.23 10.84 4.32 22.46 6.53 34.06 7.49 7.96.47 15.98 3.06 22.12 8.27 3.61 3.26 6.32 8.03 5.79 13.04-.3 6.76-5.95 11.38-8.55 17.24-3.2 6.77-2.49 14.92.97 21.46 3.84 8.72 11.24 15.22 15.17 23.88 2.99 6.05 4.13 13.3 1.96 19.8-1.29 3.69-4.39 6.21-6.95 9.02-3.3 3.61-3.14 8.94-2.23 13.44 2.21 9.94 6.87 19.13 12.29 27.69 2.41 3.5 1.28 8.1-.22 11.75-3.47 7.88-9.39 14.68-16.59 19.38-6.11 3.98-14.57 2.58-19.85 8.11-8.41 8.52-14.98 19.69-26.46 24.54-12.35 5.56-26.11 4.57-39.29 4.46l-.09-38.86c0-1.24.11-2.44.33-3.62 4.87-4.07 10.91-6.42 16.27-9.77 13.21-8.22 26.97-15.53 40.08-23.89-.4-2.21-2.28-5.82-4.92-3.85l-51.43 30.05c-.8-10.26.23-20.57-.5-30.83-2.58-.5-5.21-.22-7.8-.04 1.17-.64 2.43-1.05 3.67-1.5 1.84-11.04.91-22.34 1.33-33.49-.12-11.69.92-23.34.77-35.02.43-11.61.31-23.23.69-34.83.82-14.37.34-28.77 1.07-43.14-.35-6.67.74-13.41-.47-20.03z" class="B"/><path fill="#fff" stroke="#fff" d="M638.22 1136.06c11.59-.52 23.18-.33 34.78-.34l81.05.02 16.31 12.93c-25.11.58-50.24.11-75.36.27-24.76-.03-49.51.05-74.27-.06 5.11-5.23 12.05-8 17.49-12.82z" class="B"/><path fill="#be630a" stroke="#be630a" d="M213.1 1152.03c10.21-9.43 24.02-15.17 37.96-15.05 1.21 6.62.12 13.36.47 20.03-.73 14.37-.25 28.77-1.07 43.14l-.69 34.83c.15 11.68-.89 23.33-.77 35.02-.42 11.15.51 22.45-1.33 33.49-1.24.45-2.5.86-3.67 1.5l-.28 51.1c-11.69-13.98-22.2-28.94-33.69-43.09-1.76-1.8-3.73.97-4.86 2.22.07 1.17.88 2.13 1.51 3.1l34.9 45.09c.99 1.37 2.17 2.8 2.23 4.6.44 5.93-.2 11.89.17 17.84-8.28 1.15-16.74.25-25.06-.22-10.02-1.14-20.27-3.22-28.97-8.57-6.94-4.18-11.75-11.27-14.19-18.9-3.09-9.09-4.26-18.79-8.37-27.53-2.93-6.29-7.4-11.93-13.24-15.74-5.02-3.45-10.86-6.65-13.35-12.55-1.96-4.4-.39-9.48 2.49-13.07 6.43-8.76 16.9-14.3 21.11-24.68.54-2.96.51-6.2-1.12-8.83-1.93-4.53-6.85-6.8-8.59-11.44-2.92-4.75-2.74-10.55-1.99-15.86 2.53-9.17 8.35-17.12 15.15-23.62 12.2-10.56 26.85-19.19 43.04-21.44-2.3-2.48-5.6-4.21-6.51-7.75-2.87-8.85 2.94-17.42 8.72-23.62z" class="B"/><path fill="#f1ba67" stroke="#f1ba67" d="M810.19 1137.78c3.08-.64 5.24 1.89 7.48 3.55 5.31 4.46 11.69 7.46 16.8 12.2 4.79 4.34 10.74 7.12 15.61 11.38 7.77 6.38 16.41 11.56 24.45 17.58 6.11 4.4 11.7 9.75 18.65 12.83l.19 93.68c-.18 11.42.38 22.86-.34 34.27-4.98.1-10-.27-14.95.33-1.08 5.14-.61 10.6-.43 15.84 3.45.67 7 .4 10.51.43.94 4.65.66 9.41.62 14.13v129.03c.04 1.57.26 3.94 2.37 4.01 4.21 1.1 9.42-1.41 12.95 1.64l-80.1.26c-3.21-.03-6.44.1-9.63-.31-.67-8.44.17-16.94-.37-25.38l-.87-.1c-15.96-.33-31.96.43-47.91-.26-.52-25.29-.08-50.6-.22-75.89v-181c-.19-11.66.4-23.34-.3-34.98l-.1-.7c-9.45-.01-18.91.19-28.35-.05-1.45-1.67-2.65-4.29-5.27-4.01-46.3-.14-92.62.15-138.94-.16-4.08.13-8.17.24-12.22-.3 5.61-.79 11.28-.28 16.92-.6l183.85.21.04 119.63a19.75 19.75 0 0 0 .43 3.64c3.51.31 7.07.31 10.58-.06l.07-116.63c.06-2.01.27-4.01.48-5.99 6.13.25 12.35.79 18.45-.15-.12-9.35.54-18.76-.45-28.07z" class="B"/><path d="M1097 1143.32c4.77-.12 9.76.74 14.32-1.15l-.01 97.83-.25 64.83c-39.95.24-79.91-.03-119.86.13l-.16-.7c1.23-3.99.71-8.17.75-12.26v-135c.04-4.54-.45-9.13.42-13.61l104.79-.07zm-162.79.89c4.4-1.53 9.2-.47 13.76-.87 8.74.29 17.54-.56 26.24.56l.03 88.1-.22 72.85c-13.6.24-27.22-.08-40.83.13.38-1.96.65-3.95.71-5.92l-.02-126.06c.25-9.6-.51-19.23.33-28.79zm193.39-.02c8.41-1.21 16.93-.24 25.4-.53 10.63.24 21.31-.47 31.92.33.54 4.31.21 8.67.26 13.01l.01 130c.08 5.95-.47 11.95.46 17.88-19.27.08-38.54.08-57.8-.01a28.26 28.26 0 0 1-.3-3.87l.05-156.81z" class="E F B"/><path fill="#d9d3d0" stroke="#d9d3d0" d="M580.03 1156.83c3.82-2.9 7.55-5.92 11.46-8.69 4.36 1.5 8.99.82 13.5.86 5.24-.02 10.49.11 15.74-.12l74.27.06 75.36-.27c3.61 2.63 7.12 5.38 10.6 8.19-58.23.62-116.48-.07-174.72.37-8.74.06-17.48-.66-26.21-.4z" class="B"/><path fill="#ebe4e0" stroke="#ebe4e0" d="M580.03 1156.83c8.73-.26 17.47.46 26.21.4-3.22 2.59-6.46 5.16-9.5 7.97-5.64.32-11.31-.19-16.92.6-3.32-.52-6.65-.95-10-1.05 3.37-2.68 6.68-5.45 10.21-7.92z" class="B"/><path fill="#fefefb" stroke="#fefefb" d="M606.24 1157.23l174.72-.37c3.8 2.97 7.71 5.82 11.23 9.14-.21 1.98-.42 3.98-.48 5.99l-.07 116.63c-3.51.37-7.07.37-10.58.06a19.75 19.75 0 0 1-.43-3.64l-.04-119.63c-61.28-.27-122.57.22-183.85-.21 3.04-2.81 6.28-5.38 9.5-7.97z" class="B"/><path fill="#fefffd" stroke="#fefffd" d="M565.62 1165.8a35.32 35.32 0 0 1 4.2-1.05c3.35.1 6.68.53 10 1.05l-.22 122.8a127.44 127.44 0 0 1-13.4.06c-1.06-11.51-.15-23.12-.45-34.66l-.13-88.2z" class="B"/><path fill="#f8c476" stroke="#f8c476" d="M592.04 1166.1l138.94.16c2.62-.28 3.82 2.34 5.27 4.01l-123.25.09c-6.3-.2-12.67.54-18.91-.56-.44-1.37-1.13-2.62-2.05-3.7z" class="B"/><path fill="#25120a" stroke="#25120a" d="M592.67 1174.96c-.15-1.88.25-3.69 1.42-5.16 6.24 1.1 12.61.36 18.91.56l123.25-.09c9.44.24 18.9.04 28.35.05l.1.7c-.66 24.31-.1 48.66-.29 72.98v175c-.21 14.43.4 28.9-.29 43.32-2.36-.19-1.92-2.61-2.02-4.29l.02-259.03c-.1-4.16.48-8.42-.62-12.47-9.46-.85-19-.08-28.5-.35-40.26.1-80.54-.18-120.8.15-.73 8.86-.08 17.78-.31 26.67l.03 244.05c-.05 2.01-.39 4.03-.76 6.03-6.11.09-12.22.01-18.33-.02l-.16-288.1z" class="B"/><path d="M764.41 1244l.29-72.98c.7 11.64.11 23.32.3 34.98v181l.22 75.89c15.95.69 31.95-.07 47.91.26.36 8.89.31 17.8.03 26.7l-266.2.12-.22-.78c.56-8.45.42-16.93.07-25.38 1.02-1.16 2.8-.54 4.16-.75h41.86l18.33.02 152.84.07.12-.83c.69-14.42.08-28.89.29-43.32v-175z" class="B G H"/><path fill="#ab9d09" stroke="#ab9d09" d="M1708.21 1173.62c.69-1.05 2.25-.25 3.33-.34-.58 23.03 5.83 45.44 13.25 67.01 7.22 19.17 14.64 38.26 22.52 57.17 3.1 8.75 6.29 17.49 8.67 26.47 1.65 7.19.69 14.59.15 21.86-3.61 3.22-7.07 6.97-11.82 8.47-8.48 2.88-17.58 1.62-26.35 1.75-5.47.18-9.84-3.49-14.9-4.8-1.03 11.86-.01 23.83-.44 35.72l-.62 2.98-.03-1 .04-86.91c-.02-3.56.2-7.13-.24-10.65-2.54-.25-5.09-.23-7.6.04-1.06 3.77-.4 7.74-.51 11.61l-.08 82.1c-.48-.95-.91-1.89-1.26-2.84.82-15.05.12-30.13.44-45.18l-.89 1.27c-4.82-7.68-6.26-16.93-7.49-25.75-2.81-34.34 4.67-68.45 13.81-101.34 3.3-8.8 4.61-18.19 8.23-26.88 1.15-3.46 3.38-7.07 1.79-10.76z" class="B"/><path fill="#bfa80a" stroke="#bfa80a" d="M1697.27 1180.29c3.54-2.36 6.79-5.4 10.94-6.67 1.59 3.69-.64 7.3-1.79 10.76-3.62 8.69-4.93 18.08-8.23 26.88-9.14 32.89-16.62 67-13.81 101.34 1.23 8.82 2.67 18.07 7.49 25.75.89 6.17.34 12.43.46 18.64-.11 6.36.32 12.74-.23 19.1-1.53-.19-1.93-2.13-3.45-2.36-4.97-10.11-8.72-20.8-13.9-30.8a11.91 11.91 0 0 0-5.48 2.29c5.71 15.05 12.99 29.52 19.04 44.46-1.55 1.3-3.57.3-5.3.15-5.42-1.14-11.12-1.92-15.83-5.03-3.55-2.15-7.92-3.02-10.73-6.26-4.35-4.66-9.42-8.83-12.44-14.56-3-5.67-6-11.53-6.87-17.96-.91-7.67-2.71-15.26-2.37-23.03.32-19.48 4.9-38.58 10.23-57.22 3.67-9.19 6.55-18.74 11.27-27.47 2.44-4.93 5.15-9.73 7.32-14.8 5.7-9.1 11.16-18.45 18.31-26.53 4.97-5.7 9.1-12.25 15.37-16.68z" class="B"/><path fill="#b0820a" stroke="#b0820a" d="M1497.98 1185.87c6.69-.25 13.36-1.89 20.06-.79 16.82 1.17 33.23 8.77 44.66 21.22 5.29 5.73 9.33 12.87 10.39 20.68 1.13 5.74-.53 11.7-3.44 16.66-1.52 2.59-4.37 4.18-5.55 6.97 9.89-.1 20.33 1.03 28.88 6.45 9.2 5.66 15.35 15.32 18.34 25.54 5.23 19.68 1.34 41.19-9.22 58.46-4.6 8.38-11.66 15.03-19.21 20.74-2.81 2.05-6.2 3.09-9.03 5.08-10.68 14.07-25.28 26.3-42.93 30.06-13.88 2.83-28.78.18-40.93-7.07.22-7.86-.56-15.79.34-23.59 10.41-14.44 21.81-28.22 32.42-42.54 1.9-2.85 4.87-5.17 5.94-8.46-1.09-1.4-2.47-2.98-4.37-2.97-11.09 13.37-21.03 27.71-32.14 41.08-2.09-5.23-1.2-10.92-1.33-16.39-.07-10.6.24-21.21-.09-31.79l-.84-.35c-2.71-.35-5.44-.14-8.13-.03 1.49-.86 3.26-.95 4.92-1.38.72-9.78.01-19.64.25-29.45l.01-71c.13-4.99.16-10.03-1.07-14.9 3.73-1.85 8.03-1.67 12.07-2.23z" class="B"/><path d="M612.2 1186.33l120.8-.15c9.5.27 19.04-.5 28.5.35 1.1 4.05.52 8.31.62 12.47l-.02 259.03c.1 1.68-.34 4.1 2.02 4.29l-.12.83-152.84-.07c.37-2 .71-4.02.76-6.03l-.03-244.05c.23-8.89-.42-17.81.31-26.67m10.1 13.78l.01 69.6 126.54.08.04-.84.85-.23c.48-12.23.07-24.48.2-36.72-.2-10.56.34-21.15-.18-31.68l-.77-.46-99.99-.11c-8.89.24-17.84-.45-26.7.36m-2.14 89.04c-1.12 10.54-.12 21.24-.44 31.85l-.04 130.04c-.31 2.06.93 4.39 3.32 4l120.91.04c1.99-.17 2.3-2.46 2.26-4.02l-.06-134.06c-.22-9.28.41-18.61-.3-27.86-3.91-.67-7.88-.29-11.81-.33h-97c-5.61.29-11.31-.61-16.84.34z" class="B C D"/><path fill="#bf8f09" stroke="#bf8f09" d="M1477.13 1191.1c2.76-1.4 5.58-3 8.78-3 1.23 4.87 1.2 9.91 1.07 14.9l-.01 71c-.24 9.81.47 19.67-.25 29.45-1.66.43-3.43.52-4.92 1.38-.4 10.34.08 20.7-.15 31.05-17.41-9.55-34.29-20.13-51.51-30.02l-2.11-.86c-1.57 1.07-2.51 2.83-2.82 4.69 18.19 11.29 36.95 21.71 55.27 32.78l1.05.92c.36 13.55.06 27.15.12 40.73-2.35-.8-3.88-2.83-5.82-4.2-1.39-.99-2.82.36-4.04.89-4.6 2.45-9.29 4.82-14.18 6.61-4.21.85-8.17 2.46-12.23 3.76-8.07 1.24-16.26 1.41-24.35.37-14.41-2.8-27.47-11.84-35.07-24.41-2.41-5.22-5.64-10.29-6.07-16.16-.3-4.02-1.73-7.98-1.11-12.02.91-5.43 1.23-11.16 4.2-15.97 2.36-5.17 6.74-8.85 10.44-12.99-7.85-6.25-16.75-12.94-19.24-23.21-3.97-14.52.96-29.76 8.27-42.36 5.87-9.48 12.94-18.29 21.51-25.45 7.14-4.92 13.71-10.91 21.91-14.07 9.3-3.95 20.31-5.93 29.81-1.55 1.94.89 3.27 3.58 5.65 3.19 3.21-6.83 9.15-12.06 15.8-15.45z" class="B"/><path fill="#aeaeae" stroke="#aeaeae" d="M622.3 1200.11c8.86-.81 17.81-.12 26.7-.36l99.99.11-.1 69.09-.04.84c-42.17-.06-84.37.1-126.54-.08l-.01-69.6m9.1 4.29l-.51.7c-.62 6.27-.09 12.6-.26 18.9.16 12.63-.32 25.29.23 37.91 3.64.17 7.29.16 10.94.05l99.06-.14.11-49.6c.05-2.37 0-4.73-.23-7.06l-.8-.03-.4-.71-108.14-.02z" class="B"/><path fill="#2b0f05" stroke="#2b0f05" d="M748.99 1199.86l.77.46c.52 10.53-.02 21.12.18 31.68-.13 12.24.28 24.49-.2 36.72l-.85.23.1-69.09z" class="B"/><path fill="#ebe3e1" stroke="#ebe3e1" d="M631.4 1204.4l108.14.02.4.71c-36.35.05-72.7.12-109.05-.03l.51-.7z" class="B"/><path fill="#40534f" stroke="#40534f" d="M630.89 1205.1l109.05.03.8.03c.23 2.33.28 4.69.23 7.06-5.19 1.58-10.65.73-15.97.89-27.9.13-55.82-.22-83.7.17-.45 9.55-.03 19.14-.16 28.72.22 6.64-.64 13.37.66 19.96-3.65.11-7.3.12-10.94-.05-.55-12.62-.07-25.28-.23-37.91.17-6.3-.36-12.63.26-18.9z" class="B"/><path d="M725 1213.11c5.32-.16 10.78.69 15.97-.89l-.11 49.6-99.06.14c-1.3-6.59-.44-13.32-.66-19.96.13-9.58-.29-19.17.16-28.72l83.7-.17z" class="B E F"/><path fill="#28130b" stroke="#28130b" d="M620.16 1289.15c5.53-.95 11.23-.05 16.84-.34h97c3.93.04 7.9-.34 11.81.33.71 9.25.08 18.58.3 27.86l.06 134.06c.04 1.56-.27 3.85-2.26 4.02l-120.91-.04c-2.39.39-3.63-1.94-3.32-4l.04-130.04c.32-10.61-.68-21.31.44-31.85m2.57 7.81l.02 129.04c.24 8.59-.5 17.25.34 25.81 8.61.68 17.27.15 25.91.34h60.99c9.97-.22 19.97.46 29.91-.36 1.01-5.87.18-11.88.42-17.79l.01-137.03c.15-2.22-.39-5.46-3.32-5.13l-111.04-.02c-2.96-.41-3.32 2.99-3.24 5.14z" class="B"/><path fill="#41200b" stroke="#41200b" d="M1694.17 1291.39c2.51-.27 5.06-.29 7.6-.04.44 3.52.22 7.09.24 10.65l-.04 86.91c-1.27 4.93-.81 10.05-.86 15.09l-.02 75c-.13 4.1-.18 8.26.78 12.3l.07 3.78c-2.65.43-5.36.43-7.97-.02-.23-1.68-.31-3.34-.37-4.99l.05-84.09c.66-6.01-3.4-10.94-5.34-16.3-6.05-14.94-13.33-29.41-19.04-44.46a11.91 11.91 0 0 1 5.48-2.29c5.18 10 8.93 20.69 13.9 30.8l3.67 8.53c.35.95.78 1.89 1.26 2.84l.08-82.1c.11-3.87-.55-7.84.51-11.61z" class="B"/><path d="M622.73 1296.96c-.08-2.15.28-5.55 3.24-5.14l111.04.02c2.93-.33 3.47 2.91 3.32 5.13l-.01 137.03c-.24 5.91.59 11.92-.42 17.79-9.94.82-19.94.14-29.91.36H649c-8.64-.19-17.3.34-25.91-.34-.84-8.56-.1-17.22-.34-25.81l-.02-129.04z" class="B C D"/><path fill="#41210a" stroke="#41210a" d="M244 1304.99c2.59-.18 5.22-.46 7.8.04.73 10.26-.3 20.57.5 30.83l51.43-30.05c2.64-1.97 4.52 1.64 4.92 3.85-13.11 8.36-26.87 15.67-40.08 23.89-5.36 3.35-11.4 5.7-16.27 9.77-.22 1.18-.33 2.38-.33 3.62l.09 38.86-.17 74.2c.12 10.04-.32 20.1.36 30.14l-.75 2.38c-2.3.36-4.66.38-6.97.16l-.28-1.38c1.14-5.04.55-10.2.63-15.3l.09-85.03c-.09-1.49-.46-2.91-.8-4.32l-.19-.8c-.37-5.95.27-11.91-.17-17.84-.06-1.8-1.24-3.23-2.23-4.6l-34.9-45.09c-.63-.97-1.44-1.93-1.51-3.1 1.13-1.25 3.1-4.02 4.86-2.22 11.49 14.15 22 29.11 33.69 43.09.46-17.03-.03-34.08.28-51.1z" class="B"/><path fill="#402109" stroke="#402109" d="M1425.21 1309.69c.31-1.86 1.25-3.62 2.82-4.69l2.11.86 51.51 30.02c.23-10.35-.25-20.71.15-31.05 2.69-.11 5.42-.32 8.13.03l.17 51.23 2.09-2.7c11.11-13.37 21.05-27.71 32.14-41.08 1.9-.01 3.28 1.57 4.37 2.97-1.07 3.29-4.04 5.61-5.94 8.46l-32.42 42.54c-.9 7.8-.12 15.73-.34 23.59l.13 100.31-.57 2.42c-2.38.3-4.8.3-7.14-.08l-.82-2.42.05-105.98-.12-40.73-1.05-.92-55.27-32.78z" class="B"/><path fill="#b98f2c" stroke="#b98f2c" d="M1489.93 1304.86l.84.35c.33 10.58.02 21.19.09 31.79.13 5.47-.76 11.16 1.33 16.39l-2.09 2.7-.17-51.23z" class="B"/><path d="M878.08 1323.6c4.95-.6 9.97-.23 14.95-.33 2.32.25 4.67.37 7.01.09l152.96.02 154.94-.14c5.29.46 10.99-.98 16.03.94.43 5.14.42 10.35-.17 15.48-1.65.16-3.31.18-4.95.24l-330.69-.03c-3.51-.03-7.06.24-10.51-.43-.18-5.24-.65-10.7.43-15.84z" class="B M N"/><path d="M1691.87 1338.35l.89-1.27c-.32 15.05.38 30.13-.44 45.18-1.16-2.88-2.41-5.72-3.67-8.53 1.52.23 1.92 2.17 3.45 2.36.55-6.36.12-12.74.23-19.1-.12-6.21.43-12.47-.46-18.64z" class="B I J"/><path fill="#f8c67d" stroke="#f8c67d" d="M888.16 1339.87l330.69.03c-1.4 7.62-.35 15.41-.67 23.1l-.01 97c-.26 8.93.56 17.93-.35 26.83-3.9.74-7.88.21-11.81.42-1.3-.21-2.21.65-3.11 1.42l103.1.26c4.74.17 9.59-.75 14.23.63-26.07.51-52.16.08-78.23.23-142.95.07-285.9-.08-428.84.06.28-8.9.33-17.81-.03-26.7l.87.1c.54 8.44-.3 16.94.37 25.38 3.19.41 6.42.28 9.63.31l80.1-.26c-3.53-3.05-8.74-.54-12.95-1.64-2.11-.07-2.33-2.44-2.37-4.01V1354c.04-4.72.32-9.48-.62-14.13z" class="B"/><path fill="#bfa80a" stroke="#bfa80a" d="M1744.31 1354.26c4.75-1.5 8.21-5.25 11.82-8.47.95 9.33-.46 19.49-6.27 27.14-3.22 4.77-8.07 8.22-13.19 10.72-10.76 5.16-22.8 7.04-34.65 7.12l-.02-.86c.23-1 .43-2 .62-2.98.43-11.89-.59-23.86.44-35.72 5.06 1.31 9.43 4.98 14.9 4.8 8.77-.13 17.87 1.13 26.35-1.75z" class="B"/><path fill="#1a0a00" stroke="#1a0a00" d="M244.17 1386.65c.34 1.41.71 2.83.8 4.32l-.09 85.03c-.08 5.1.51 10.26-.63 15.3l-.18-1-.12-83.3c.1-6.78-.23-13.58.22-20.35z" class="B"/><path fill="#1d0b00" stroke="#1d0b00" d="M1701.11 1404c.05-5.04-.41-10.16.86-15.09l.03 1 .02.86-.11 99.48-.04 1.05c-.96-4.04-.91-8.2-.78-12.3l.02-75z" class="B"/><path fill="#ffd393" stroke="#ffd393" d="M546.07 1477c.18-4.4-.59-8.93.74-13.19.35 8.45.49 16.93-.07 25.38-1.39-3.93-.55-8.14-.67-12.19z" class="B"/><path fill="#677573" stroke="#677573" d="M50.88 1490l172.12-.16c7.02.26 14.12-.61 21.07.46l.18 1 .28 1.38c2.31.22 4.67.2 6.97-.16l.75-2.38c8.89-.69 17.84-.1 26.75-.29l214.98-.06 52.98.18 266.2-.12 428.84-.06 78.23-.23.73.04c23.67.55 47.36.1 71.04.25h86.02a21.63 21.63 0 0 1 3.58.25l.82 2.42c2.34.38 4.76.38 7.14.08l.57-2.42c9.25-.85 18.58-.09 27.87-.33l160.99-.01c4.86.05 9.75-.26 14.61.23.06 1.65.14 3.31.37 4.99 2.61.45 5.32.45 7.97.02 0-1.28-.03-2.54-.07-3.78l.04-1.05c5.64-.94 11.4-.2 17.09-.4h95c13.67.17 27.37-.34 41.02.19.54 5.29.42 10.68.01 15.99-7.65.69-15.36.08-23.03.28l-1756 .01c-8.37-.19-16.78.35-25.14-.25-.44-5.34-.48-10.75.02-16.07z" class="B"/></svg>