<svg xmlns="http://www.w3.org/2000/svg" xmlns:xlink="http://www.w3.org/1999/xlink" height="48" width="48" xmlns:v="https://vecta.io/nano"><defs><radialGradient id="A" xlink:href="#B" cy="487" cx="606" gradientTransform="matrix(-2.77 0 0 1.97 113 -873)" r="117"/><linearGradient id="B" xlink:href="#H"><stop offset="0"/><stop stop-opacity="0" offset="1"/></linearGradient><radialGradient id="C" xlink:href="#B" cy="487" cx="606" gradientTransform="matrix(2.77 0 0 1.97 -1.89e3 -873)" r="117"/><linearGradient id="D" x1="-1050.69" x2="-1050.69" y1="-150.01" y2="328.7" xlink:href="#H"><stop stop-opacity="0" offset="0"/><stop offset=".5"/><stop stop-opacity="0" offset="1"/></linearGradient><linearGradient id="E" x1="23.124" y1="35.715" x2="23.124" y2="11.79" xlink:href="#H"><stop stop-color="#919191" offset="0"/><stop stop-color="#e9e9e9" offset=".202"/><stop stop-color="#f3f3f3" offset=".236"/><stop stop-color="#e6e6e6" offset=".299"/><stop stop-color="#f8f8f8" offset="1"/></linearGradient><linearGradient id="F" x1="4.68" y1="13.8" gradientTransform="matrix(1.31 0 0 .763 .125 -1.12)" x2="40.4" y2="73.1" xlink:href="#H"><stop stop-color="#fff" offset="0"/><stop stop-color="#fff" stop-opacity="0" offset="1"/></linearGradient><linearGradient id="G" y2="17.601" y1="13.483" x2="23.146" x1="23.146" xlink:href="#H"><stop stop-color="#919191" offset="0"/><stop stop-color="#b2b2b2" offset=".138"/><stop stop-color="#d6d6d6" offset=".177"/><stop stop-color="#f8f8f8" offset=".299"/></linearGradient><linearGradient id="H" gradientUnits="userSpaceOnUse"/></defs><g transform="matrix(.0237 0 0 .0209 44.7 33.3)"><path opacity=".402" fill="url(#D)" d="M-1560-151h1340v478h-1340z"/><path opacity=".402" fill="url(#C)" d="M-220-151v478c143 .9 345-107 345-239S-34-151-220-151z"/><path opacity=".402" fill="url(#A)" d="M-1560-151v478c-143 .9-345-107-345-239s160-239 345-239z"/></g><path d="M6.668 11.506L2.38 31c-.681 3.12.808 5.11 2.96 5.11h37.3c2.15 0 3.66-2.34 2.91-5.06l-5.38-19.6c-.149-.54-.837-.97-1.4-.969l-30.7.054c-.827.001-1.24.232-1.4.968z" fill-rule="evenodd" stroke="#828282" fill="url(#E)"/><path d="m7.43 12.3-3.98 18.8c-.441 2.08-.319 4.09 1.98 4.09h36.7c2.23 0 2.96-1.85 2.18-4.66l-5.02-18.2c-.138-.497-.459-.831-.977-.83l-29.8.049c-.66 0-.86-.1-.98.5z" stroke="url(#F)" stroke-width=".982" fill="none"/><path d="M20.1 17.7l-.806-3.35c-.129-.536.153-.878.561-.878h7.06c.408 0 .692.401.551.869l-1.02 3.36c-.028.093-.159.167-.265.166l-5.81-.009c-.157 0-.217.05-.247-.076z" fill-rule="evenodd" stroke="#333" stroke-width=".4" fill="url(#G)"/><path d="M23.814 17.434h-.421-.421l.211-1.639.211-1.639.211 1.639z" fill="red"/></svg>